<?xml version="1.0" encoding="UTF-8" standalone="no"?>
<!-- Created with Inkscape (http://www.inkscape.org/) -->

<svg
   xmlns:osb="http://www.openswatchbook.org/uri/2009/osb"
   xmlns:dc="http://purl.org/dc/elements/1.1/"
   xmlns:cc="http://creativecommons.org/ns#"
   xmlns:rdf="http://www.w3.org/1999/02/22-rdf-syntax-ns#"
   xmlns:svg="http://www.w3.org/2000/svg"
   xmlns="http://www.w3.org/2000/svg"
   xmlns:xlink="http://www.w3.org/1999/xlink"
   xmlns:sodipodi="http://sodipodi.sourceforge.net/DTD/sodipodi-0.dtd"
   xmlns:inkscape="http://www.inkscape.org/namespaces/inkscape"
   width="256mm"
   height="256mm"
   viewBox="0 0 255.99999 256.00001"
   version="1.1"
   id="svg8"
   inkscape:version="0.92.2 (5c3e80d, 2017-08-06)"
   sodipodi:docname="logo.svg"
   inkscape:export-filename="C:\Users\marku\Desktop\git\yggdrasil\desktop-app\resources\icon.png"
   inkscape:export-xdpi="25.400003"
   inkscape:export-ydpi="25.400003">
  <defs
     id="defs2">
    <linearGradient
       id="linearGradient912"
       osb:paint="solid">
      <stop
         style="stop-color:#5cc070;stop-opacity:1;"
         offset="0"
         id="stop910" />
    </linearGradient>
    <linearGradient
       inkscape:collect="always"
       id="linearGradient904">
      <stop
         style="stop-color:#000000;stop-opacity:1;"
         offset="0"
         id="stop900" />
      <stop
         style="stop-color:#000000;stop-opacity:0;"
         offset="1"
         id="stop902" />
    </linearGradient>
    <radialGradient
       inkscape:collect="always"
       xlink:href="#linearGradient904"
       id="radialGradient908"
       cx="152.19604"
       cy="97.909302"
       fx="152.19604"
       fy="97.909302"
       r="128.21529"
       gradientTransform="matrix(1,0,0,0.99999804,0,1.9166948e-4)"
       gradientUnits="userSpaceOnUse" />
  </defs>
  <sodipodi:namedview
     id="base"
     pagecolor="#ffffff"
     bordercolor="#666666"
     borderopacity="1.0"
     inkscape:pageopacity="0.0"
     inkscape:pageshadow="2"
     inkscape:zoom="0.98994949"
     inkscape:cx="450.85199"
     inkscape:cy="482.76205"
     inkscape:document-units="mm"
     inkscape:current-layer="layer1"
     showgrid="false"
     fit-margin-top="0"
     fit-margin-left="0"
     fit-margin-right="0"
     fit-margin-bottom="0"
     inkscape:window-width="1920"
     inkscape:window-height="1017"
     inkscape:window-x="-8"
     inkscape:window-y="-8"
     inkscape:window-maximized="1" />
  <metadata
     id="metadata5">
    <rdf:RDF>
      <cc:Work
         rdf:about="">
        <dc:format>image/svg+xml</dc:format>
        <dc:type
           rdf:resource="http://purl.org/dc/dcmitype/StillImage" />
        <dc:title />
      </cc:Work>
    </rdf:RDF>
  </metadata>
  <g
     inkscape:label="Layer 1"
     inkscape:groupmode="layer"
     id="layer1"
     transform="translate(-24.19591,30.091508)">
    <circle
       style="opacity:1;fill:#f9f9f9;fill-opacity:1;fill-rule:evenodd;stroke:#000000;stroke-width:0.40048715;stroke-miterlimit:4;stroke-dasharray:none;stroke-opacity:1"
       id="path972"
       cx="152.17143"
       cy="98.213692"
       r="127.79976"
       inkscape:export-filename="C:\Users\marku\Desktop\git\yggdrasil\desktop-app\resources\icon.png"
       inkscape:export-xdpi="25.400003"
       inkscape:export-ydpi="25.400003" />
    <path
       style="fill:#5cc070;fill-opacity:1;stroke:url(#radialGradient908);stroke-width:0.42699999;stroke-miterlimit:4;stroke-dasharray:none;stroke-opacity:1"
       d="m 136.83474,225.32315 c -22.73063,-2.76173 -44.168105,-11.5338 -62.937579,-25.75362 -5.54637,-4.20195 -19.162376,-17.83314 -23.414917,-23.44102 -14.134916,-18.63993 -22.98906,-40.4525 -25.66821,-63.23478 -0.824166,-7.00834 -0.824166,-22.864148 0,-29.872496 2.552007,-21.701106 10.533004,-42.095449 23.625573,-60.371925 1.512986,-2.112046 3.625016,-4.896092 4.693402,-6.186793 C 56.250002,12.696943 65.478591,3.4129314 69.416859,0.08088176 82.985727,-11.399355 99.050349,-19.995966 116.55664,-25.144886 c 22.4244,-6.595434 48.85387,-6.595434 71.27827,0 29.35561,8.634024 53.70291,26.4649293 71.08694,52.060943 11.05222,16.273168 18.6869,37.330125 20.83982,57.477671 0.65434,6.123449 0.55009,22.256272 -0.18416,28.500002 -2.68596,22.84021 -11.51456,44.55075 -25.76486,63.35865 -4.16601,5.49841 -17.81958,19.15134 -23.31825,23.31715 -13.54511,10.26182 -29.09477,17.99583 -44.58967,22.1778 -5.27357,1.42329 -13.10797,2.91983 -18.77201,3.58585 -6.56207,0.77161 -23.91189,0.76587 -30.29798,-0.01 z m 18.35908,-18.1415 c 1.98866,-0.23725 4.95981,-0.82705 6.6026,-1.3107 4.19486,-1.23497 9.57056,-3.81335 9.31872,-4.46961 -0.14514,-0.37809 -1.21384,-0.0606 -3.6947,1.09746 -4.75566,2.21998 -7.81274,2.98348 -13.09119,3.26954 -4.98888,0.27037 -9.21665,-0.24504 -13.47438,-1.64269 -3.35312,-1.1007 -7.15885,-3.29415 -7.33907,-4.22991 -0.0936,-0.48592 1.34348,-1.39814 5.12605,-3.25389 2.89085,-1.41828 5.51451,-2.89003 5.83034,-3.27058 0.79384,-0.95648 0.93174,-0.91476 3.35525,1.01477 1.6746,1.33327 2.19702,1.56738 2.38787,1.07004 0.25439,-0.66288 -0.63096,-1.56662 -7.51352,-7.66947 -2.05347,-1.82084 -3.73357,-3.53625 -3.73357,-3.81201 0,-0.27576 0.86405,-1.2236 1.92012,-2.10633 3.23341,-2.70266 2.33176,-3.33844 -1.30823,-0.92246 -1.23748,0.82135 -2.43689,1.49336 -2.66536,1.49336 -0.22848,0 -0.52657,0.28966 -0.66243,0.6437 -0.13586,0.35404 -0.72415,0.86109 -1.30731,1.12678 -0.93182,0.42455 -1.42606,0.26208 -4.07939,-1.34102 -5.07628,-3.06698 -4.10427,-1.0618 1.24008,2.55818 l 1.88475,1.27664 1.86287,-1.09165 1.86287,-1.09167 3.38625,3.54628 c 1.86244,1.95045 3.39222,3.76488 3.39952,4.03208 0.0184,0.67224 -6.64936,4.0815 -7.65816,3.91566 -1.14803,-0.18871 -12.88761,-10.17897 -13.64798,-11.61429 -0.5872,-1.10841 -0.56158,-1.22715 0.42669,-1.9774 0.57827,-0.439 1.52795,-1.04684 2.1104,-1.35075 1.44734,-0.75521 2.96478,-2.5202 2.98113,-3.46743 0.0126,-0.73044 -0.0837,-0.72144 -1.47393,0.13772 -2.11485,1.30699 -4.48632,3.47978 -4.48632,4.11046 0,2.18794 -2.75356,-0.0408 -5.96808,-4.83052 -2.45402,-3.65657 -3.70234,-6.81325 -4.3554,-11.01372 -1.11764,-7.18864 2.31136,-14.15222 9.21838,-18.72059 4.0606,-2.68571 17.16945,-8.79601 18.87069,-8.79601 0.90165,0 1.0336,0.69667 0.55481,2.9291 -0.5182,2.4161 -2.69545,4.76647 -5.45999,5.89408 -0.85414,0.34839 -3.85973,1.74759 -6.67907,3.10935 -6.01573,2.9056 -9.02717,5.38241 -10.69916,8.79969 -1.04508,2.13596 -1.1275,2.66105 -0.92561,5.89694 0.16686,2.67443 0.4994,4.1052 1.3458,5.79026 1.58543,3.15637 4.5399,7.26137 5.22619,7.26137 0.31802,0 0.57822,-0.0839 0.57822,-0.18641 0,-0.10256 -0.96007,-2.14954 -2.13348,-4.54894 -1.88743,-3.85941 -2.13348,-4.6793 -2.13348,-7.10926 0,-1.6928 0.27616,-3.32867 0.71973,-4.26336 1.5134,-3.18909 5.18173,-5.78041 9.84956,-6.95773 2.92035,-0.73655 3.11576,-0.52238 4.49979,4.93199 1.41032,5.55803 3.54524,10.55596 6.49983,15.21643 1.31084,2.06766 2.26018,3.95868 2.10963,4.20225 -0.15062,0.24358 -0.10563,0.3901 0.0998,0.32563 0.20549,-0.0645 1.93004,1.32066 3.83233,3.07811 l 3.45871,3.19534 -1.71266,1.85791 c -1.30086,1.41122 -1.59316,1.97659 -1.21571,2.35143 0.37705,0.37447 1.67477,-0.70656 5.3792,-4.48103 2.68524,-2.73601 4.88225,-5.18406 4.88225,-5.44012 0,-0.99217 -1.00615,-0.36019 -3.67431,2.30784 -1.52545,1.52537 -3.0388,2.77339 -3.36301,2.77339 -0.32422,0 -1.80166,-1.91765 -3.28319,-4.26145 -4.15918,-6.57988 -4.55102,-7.30665 -5.29373,-9.81884 -0.96816,-3.27465 -0.6427,-10.38772 0.62642,-13.69038 1.87945,-4.89096 6.94823,-11.91013 8.60072,-11.91013 1.01735,0 2.99575,2.13859 5.64254,6.09938 3.18994,4.77356 4.7234,9.8985 4.29658,14.35954 -0.22328,2.33383 -2.16022,9.894 -2.66392,10.39767 -0.19672,0.1967 -1.35627,-0.14836 -2.57678,-0.76682 -2.17842,-1.10383 -3.27717,-1.2821 -2.67126,-0.43341 0.53285,0.74637 4.93696,3.88773 7.39634,5.27564 3.73569,2.10821 5.13233,1.4849 1.78803,-0.79798 -2.75096,-1.87786 -2.85608,-2.08461 -1.66525,-3.27538 1.23767,-1.23763 4.54732,-7.50536 5.99749,-11.35797 0.55903,-1.48512 1.32962,-4.22428 1.71241,-6.08702 0.90016,-4.38027 1.2657,-4.75377 4.02825,-4.11612 8.90464,2.05533 12.8401,8.53789 9.89726,16.30298 -1.00947,2.66365 -4.42889,7.25205 -5.64058,7.5689 -0.44335,0.11595 -0.81939,0.4284 -0.83564,0.69437 -0.0163,0.26597 -1.16081,1.3956 -2.54348,2.51028 -1.92017,1.54802 -2.86469,2.02671 -3.99891,2.02671 -2.0884,0 -2.23451,-0.61133 -0.60379,-2.52641 1.70613,-2.00363 3.09341,-4.30039 2.5975,-4.30039 -0.42144,0 -12.20879,11.74482 -12.41849,12.3737 -0.42148,1.26401 1.63437,0.0661 4.43408,-2.58372 3.22203,-3.04952 3.65209,-3.19311 4.79962,-1.6026 0.83932,1.16332 1.6316,0.96022 4.64665,-1.19116 6.22448,-4.44149 11.04582,-10.08015 12.73148,-14.88971 1.05987,-3.02407 0.98153,-7.17727 -0.1853,-9.8243 -1.93355,-4.38634 -5.78989,-7.27995 -14.76351,-11.07776 -2.58151,-1.09256 -5.29077,-2.56023 -6.02057,-3.2615 -1.93224,-1.85667 -3.03784,-6.08737 -1.7227,-6.59201 1.17572,-0.45115 13.58492,4.93258 17.74757,7.69979 11.96079,7.95114 13.83608,19.00037 5.30487,31.2564 -2.13185,3.06263 -2.82799,4.81297 -1.91422,4.81297 0.59951,0 4.82577,-4.73208 6.5612,-7.3465 0.86569,-1.30416 2.30332,-4.06037 3.19473,-6.12493 1.85921,-4.30601 2.33041,-4.60278 6.39803,-4.02949 2.41466,0.34031 5.10586,0.144 14.10949,-1.02886 2.50355,-0.32616 4.69732,-0.50313 4.87507,-0.39327 0.17774,0.10982 0.32317,0.87515 0.32317,1.70071 0,1.10475 0.34397,1.84498 1.30295,2.80389 1.25771,1.25766 1.40604,1.29554 4.27078,1.09058 7.04462,-0.50401 15.17388,-7.38111 17.1966,-14.54777 1.06111,-3.7596 1.30561,-5.96275 0.63736,-5.74295 -0.32324,0.10628 -0.81779,1.40241 -1.11838,2.93099 -0.79423,4.03887 -2.74799,7.6717 -5.78017,10.74775 -2.88631,2.92807 -5.49079,4.38737 -8.4247,4.72043 -1.04355,0.11853 -2.23683,0.3491 -2.65175,0.51252 -1.30545,0.51417 -3.18687,-0.60151 -3.86641,-2.2928 -0.77239,-1.92239 -0.31996,-2.62735 1.68618,-2.62735 1.92539,0 1.83279,-0.67372 -0.15885,-1.15619 -1.5907,-0.38532 -1.59968,-0.39977 -1.5253,-2.45592 0.16309,-4.5091 5.86061,-12.69807 10.57458,-15.19871 1.71755,-0.9111 1.98733,-0.9499 2.56805,-0.36919 1.0251,1.02505 2.02838,5.46901 1.78923,7.92533 -0.37357,3.837 -2.3525,6.65801 -6.19267,8.82777 -2.12312,1.19959 -1.71309,1.9163 0.55434,0.96896 3.77017,-1.5752 6.63273,-5.41982 6.63273,-8.90822 0,-2.06736 1.01663,-4.28692 2.25946,-4.93294 0.51742,-0.26895 1.85091,-0.75738 2.9633,-1.08541 4.87478,-1.43748 7.5781,-4.32141 7.5781,-8.08439 0,-1.91681 0.83167,-4.01406 2.41483,-6.0896 1.00791,-1.32137 1.2141,-2.07771 1.42488,-5.22694 0.20164,-3.01262 0.4956,-4.16462 1.61693,-6.33656 1.64741,-3.19094 1.7097,-4.64087 0.31209,-7.26614 -1.17305,-2.20347 -1.30753,-1.63693 1.34856,-5.68098 1.98088,-3.01599 2.81092,-6.24378 2.7907,-10.852193 -0.0234,-5.329019 -1.09032,-9.04331 -3.35901,-11.693636 -1.49687,-1.748656 -1.55062,-1.913854 -1.03547,-3.182204 0.29883,-0.735795 0.82343,-2.237316 1.16576,-3.336695 0.81274,-2.610042 0.21683,-4.943857 -1.76956,-6.930151 -1.32994,-1.329872 -1.42093,-1.579071 -1.04947,-2.874191 0.91303,-3.183414 0.26872,-5.762962 -2.11405,-8.463844 -1.18037,-1.337951 -1.31857,-1.781989 -1.32786,-4.266762 -0.0113,-3.08177 -0.97122,-5.711761 -2.72371,-7.464158 -1.04146,-1.041405 -2.38826,-1.438434 -2.38826,-0.704026 0,0.200934 0.70709,1.291346 1.57134,2.423139 2.32236,3.041373 2.39544,5.217989 0.34685,10.331802 -1.48981,3.718936 -1.65316,3.946752 -2.83008,3.946752 -0.68695,0 -1.90943,-0.275937 -2.7166,-0.613171 l -1.46762,-0.613186 0.87499,-1.977956 c 0.48125,-1.087881 0.75981,-2.278131 0.61903,-2.644973 -0.22494,-0.586142 -0.36223,-0.570839 -1.13256,0.126269 -0.48214,0.436298 -1.19158,1.326454 -1.57655,1.978118 -0.38495,0.651664 -0.84245,1.184848 -1.01663,1.184848 -0.57902,0 -2.48617,-3.684184 -2.48617,-4.802688 0,-2.973949 1.20587,-3.138164 5.87654,-0.800285 4.28758,2.146154 5.21755,2.432847 5.21755,1.608535 0,-0.625781 -3.47639,-3.259046 -4.30255,-3.259046 -0.23071,0 -1.36678,-0.479999 -2.52459,-1.066691 -2.97617,-1.508067 -4.49028,-1.420792 -5.55171,0.320011 -1.3845,2.270616 -0.84842,5.471494 1.22586,7.319617 1.35692,1.208941 1.15694,1.960572 -0.52159,1.960572 -1.52859,0 -3.13774,-0.940438 -7.20855,-4.212949 -4.53209,-3.643319 -4.0241,-4.457053 5.06523,-8.11408 3.72757,-1.499762 7.19943,-2.985656 7.71523,-3.30199 1.15665,-0.709364 1.24055,-0.571339 1.60655,2.643214 0.53511,4.699867 1.61909,4.753439 2.15845,0.106595 0.79293,-6.831684 -1.65238,-15.584785 -5.23178,-18.727399 -2.92631,-2.569194 -8.82438,-4.751454 -10.32894,-3.821628 -0.86009,0.531556 0.57365,1.574073 2.94814,2.14367 1.9636,0.471033 2.85322,1.404811 1.7035,1.788037 -0.30799,0.102563 -0.31691,1.741157 -0.0289,5.297749 0.56092,6.925797 0.0882,8.864195 -2.48103,10.174522 -1.39759,0.712767 -6.82659,1.943897 -8.5722,1.943897 -2.01056,0 -1.57944,-1.565203 0.81616,-2.963128 1.0316,-0.601979 2.2585,-1.607276 2.72642,-2.233977 0.82758,-1.108377 1.58823,-5.469785 0.95397,-5.469785 -0.17209,0 -1.06784,0.597915 -1.99055,1.328663 -1.85771,1.471267 -3.35216,4.018611 -3.35216,5.713889 0,0.606687 -0.44867,1.551721 -0.99704,2.100064 -1.45866,1.458592 -7.11295,2.555326 -7.76181,1.505503 -0.44093,-0.713411 0.91079,-2.392514 2.76487,-3.434532 0.94163,-0.529185 2.21059,-1.715468 2.8199,-2.636183 1.1567,-1.747802 2.46577,-5.001236 2.14242,-5.324568 -0.50209,-0.50206 -3.08269,0.570339 -4.53953,1.886439 -1.52257,1.375477 -2.07933,2.471099 -2.71093,5.334647 -0.62579,2.837311 -4.19217,5.040309 -7.119,4.397498 -3.26749,-0.71762 -3.30831,-2.743326 -0.1387,-6.881417 3.70686,-4.839408 4.86386,-5.696698 7.68831,-5.696698 2.27598,0 6.57136,-1.39899 6.57136,-2.140268 0,-0.539279 -1.22486,-0.846453 -3.3753,-0.846453 -1.55889,0 -2.49382,0.310238 -4.05891,1.346853 -2.60076,1.722596 -3.02211,1.184525 -1.85027,-2.362859 1.04082,-3.150758 1.42004,-3.640739 2.13574,-2.759614 0.5958,0.733505 18.56292,7.01117 18.95224,6.621864 0.6739,-0.67387 -0.41929,-2.471888 -1.99009,-3.27322 -2.45466,-1.252208 -3.09935,-2.501836 -3.32795,-6.450587 -0.15499,-2.677112 -0.35556,-3.477397 -0.95144,-3.796294 -0.94854,-0.50761 -1.26707,0.207158 -1.26707,2.843309 0,2.354731 -0.60238,3.563785 -1.77556,3.563785 -0.49068,0 -2.57602,-0.673676 -4.63409,-1.497053 -2.05809,-0.823377 -4.05003,-1.378848 -4.42655,-1.234372 -0.53003,0.203385 -0.6842,-0.0129 -0.68298,-0.956322 0.003,-1.995631 1.4102,-3.809165 3.60795,-4.648458 2.48065,-0.947324 2.40801,-1.741851 -0.29277,-3.202023 -2.51907,-1.361932 -3.95541,-2.700221 -4.61999,-4.304579 -0.67234,-1.623097 -0.38097,-1.850413 1.55356,-1.211989 2.33931,0.772015 5.87931,4.445749 6.77209,7.027941 1.1377,3.290574 2.46528,6.165621 3.08421,6.67926 0.74399,0.617444 0.71543,0.248796 -0.28332,-3.656077 -1.75705,-6.869678 -4.60457,-10.136948 -10.511,-12.060365 -1.9686,-0.641069 -3.57927,-1.318003 -3.57927,-1.5043102 0,-0.1863072 0.16962,-0.3387331 0.37693,-0.3387331 0.2073,0 0.47935,-0.3916757 0.60454,-0.8703851 0.25783,-0.9858656 0.96247,-0.9088625 4.88417,0.5337646 2.66848,0.9816405 6.52437,4.3536188 7.57827,6.6272188 0.81379,1.755638 2.26416,3.522936 2.89115,3.522936 0.72288,0 -0.13724,-2.308303 -1.73447,-4.655132 -3.02857,-4.4497479 -8.83784,-8.0394475 -12.2529,-7.5713815 -1.73719,0.2380888 -1.85704,0.1840657 -2.37716,-1.0715447 -1.30165,-3.1423397 -3.86833,-5.04896906 -6.79678,-5.04896906 -1.52122,0 -2.01642,-0.26811597 -3.81265,-2.06426394 -2.22896,-2.2288491 -5.06821,-3.3827669 -7.08069,-2.877691 -0.89271,0.2240428 -1.50864,-0.048863 -3.11086,-1.378525 -5.23945,-4.3480228 -8.00914,-5.2886548 -15.07611,-5.1200218 -4.2881,0.102241 -5.08728,0.0032 -6.97636,-0.86137 -2.58593,-1.184107 -4.84489,-1.275075 -7.04361,-0.28363 -1.62696,0.733618 -1.67554,0.728925 -3.89283,-0.375952 -2.78658,-1.388556 -3.67952,-1.395361 -6.52405,-0.04967 -2.16065,1.022101 -2.33997,1.040856 -4.08082,0.426669 -3.28756,-1.159868 -6.34127,-0.7401 -8.06351,1.108394 -0.85692,0.919764 -0.97803,0.932149 -3.83854,0.392433 -5.71645,-1.078575 -11.90466,0.227623 -15.30193,3.2298898 -1.99556,1.7635406 -1.11551,1.8610564 1.8241,0.202111 3.36424,-1.8985662 6.70187,-2.7312798 9.91393,-2.473469 2.84095,0.2280421 3.83833,0.7180077 3.28476,1.6136466 -0.23377,0.3782264 -1.33971,0.4578258 -3.99509,0.2875159 -3.90562,-0.2504738 -6.39697,0.2796624 -7.68149,1.6345624 -0.63991,0.6749666 -0.49453,0.7050099 2.25496,0.4659696 1.61643,-0.1406213 3.38579,-0.5482782 3.93192,-0.9061048 0.54613,-0.3578105 1.2058,-0.6505675 1.46595,-0.6505675 1.26595,0 -0.21206,1.6763134 -4.26629,4.8386659 -2.45485,1.91482153 -5.86593,5.1105555 -7.58017,7.1016383 l -3.11679,3.62013 0.96638,0.7437936 c 0.53151,0.4090922 1.1931,0.7480671 1.4702,0.753292 0.2771,0.00484 1.6623,-1.3909906 3.07822,-3.102669 1.41593,-1.7116946 3.56372,-3.9168863 4.77288,-4.9004459 l 2.19848,-1.78829445 1.12373,0.79231768 c 0.61806,0.43576507 2.1573,1.31310057 3.42055,1.94960597 3.03838,1.530967 6.45044,4.731555 6.45044,6.0506707 0,1.4756212 -0.72478,1.2432898 -2.71311,-0.8696756 -1.71596,-1.8235304 -4.62561,-3.2994584 -5.25799,-2.6671136 -0.49767,0.4976578 1.08654,3.0486782 2.34327,3.7733137 0.63114,0.3639224 2.38342,0.7960429 3.89395,0.9602571 3.12102,0.3392976 4.45115,0.9218446 6.0588,2.6534866 1.64662,1.77362 2.50221,3.712502 2.50221,5.670348 0,2.529186 -1.20089,2.331138 -3.03607,-0.500705 -0.79432,-1.225729 -2.04519,-2.631072 -2.77971,-3.122989 -1.30033,-0.870852 -7.74947,-2.559793 -8.16974,-2.139541 -0.41099,0.410979 0.83571,2.705623 2.17329,4.000082 1.79621,1.738319 4.0582,2.637683 6.63399,2.637683 1.86183,0 2.25061,0.168165 3.39065,1.466526 1.7653,2.010451 2.44427,5.257758 1.69961,8.128708 -0.34555,1.332211 -0.81325,2.178374 -1.25026,2.261989 -0.92599,0.177147 -4.63539,-2.988221 -10.4696,-8.934121 -2.91032,-2.96603 -4.88857,-5.341532 -5.07852,-6.098323 -0.17114,-0.681821 -0.0803,-2.694368 0.20176,-4.472325 0.37453,-2.3604237 0.39122,-3.8570739 0.0618,-5.5468367 -0.53335,-2.7361826 -0.64145,-2.8882053 -1.52962,-2.1511202 -1.98418,1.646641 -2.4358,4.9469702 -1.04892,7.6653489 1.10617,2.168166 1.13187,3.840077 0.059,3.840077 -1.24615,0 -11.66054,-5.059322 -12.96656,-6.2991608 -0.95801,-0.9094753 -1.17342,-1.4848136 -1.17342,-3.1341154 0,-1.6796032 0.31732,-2.4933366 1.88224,-4.82694214 1.54645,-2.30604566 1.74396,-2.80678356 1.10712,-2.80678356 -0.42633,0 -1.57953,0.6720154 -2.56266,1.49336042 -1.24542,1.04046928 -2.21235,1.49336048 -3.18834,1.49336048 -1.99008,0 -2.61241,-0.89960601 -1.39331,-2.01409503 2.50406,-2.28917757 6.24473,-2.87194997 10.3809,-1.61725887 2.79022,0.8464053 4.14631,0.8070571 5.33418,-0.1548126 l 0.98729,-0.7994132 -2.32678,-0.5131552 c -1.27972,-0.2822426 -4.16083,-0.6203467 -6.40246,-0.7513407 -5.09819,-0.2979174 -7.40606,0.5245887 -9.12878,3.2534339 -1.05886,1.67726484 -1.18516,1.74335045 -3.33533,1.74546299 -2.748302,0.003225 -4.839878,1.16910881 -6.690639,3.73122411 -0.744588,1.0307613 -1.657648,1.8133709 -2.115672,1.8133709 -0.44317,0 -2.113981,0.4040446 -3.712906,0.8978805 -2.517833,0.7776427 -3.280969,1.277913 -5.698664,3.7357072 -1.924899,1.956847 -3.314745,3.896809 -4.476908,6.248928 -0.926963,1.876102 -1.876582,3.668025 -2.110257,3.982036 -0.6077,0.816636 -0.818645,4.202662 -0.282468,4.534009 0.876504,0.541699 0.429234,1.121585 -1.504303,1.950364 -2.357223,1.010378 -3.164838,1.055709 -3.164838,0.177664 0,-0.730554 2.829858,-5.353387 3.564597,-5.823082 0.255365,-0.163247 0.344454,-0.416639 0.197983,-0.563114 -0.546308,-0.546279 -3.647552,1.497472 -4.711256,3.104767 -2.013251,3.042082 -3.604663,9.424342 -2.517491,10.096229 0.875418,0.541021 0.50275,1.039356 -2.241734,2.99767 -3.041104,2.169988 -3.485848,2.301111 -3.795024,1.118892 -0.216062,-0.826199 2.67786,-5.61976 4.110434,-6.80864 0.790411,-0.655953 0.919469,-1.328823 0.254869,-1.328823 -0.834658,0 -3.047839,1.918272 -4.513997,3.912499 -1.583592,2.153943 -2.920087,5.57501 -3.382449,8.658118 -0.369413,2.463293 0.141741,2.506818 2.829114,0.240894 2.751311,-2.319833 4.942269,-3.573476 5.282677,-3.022698 0.464557,0.751631 -1.071974,3.381347 -2.483645,4.250684 -0.737734,0.454311 -2.685425,1.330582 -4.328202,1.9473 -3.357529,1.260416 -5.486535,3.038825 -6.656513,5.560302 -0.911975,1.965442 -1.043462,4.545587 -0.292892,5.747367 0.454025,0.72699 0.297578,1.032294 -1.27095,2.480291 -2.754315,2.542651 -3.71933,5.627549 -2.644613,8.454135 0.385039,1.012668 0.271217,1.376784 -0.876964,2.805478 -2.711198,3.373558 -3.134045,6.316512 -1.423064,9.904309 l 0.731082,1.533015 -2.023776,3.951429 c -3.99593,7.802036 -3.656517,14.906771 1.077098,22.546111 l 0.946615,1.52769 -0.963495,2.99635 c -0.844059,2.6249 -0.901057,3.22891 -0.459786,4.87243 0.27704,1.03186 1.061383,2.63569 1.742988,3.5641 1.147644,1.56317 1.219554,1.88048 0.972539,4.29138 -0.297001,2.89877 0.290102,4.50494 2.795202,7.64694 1.033426,1.29618 1.280593,1.94526 1.083111,2.84435 -0.628237,2.86023 1.705032,6.85149 4.982868,8.52364 1.283944,0.65497 1.645217,1.09003 1.662191,2.00157 0.114535,6.15199 2.944865,12.58952 7.228252,16.44046 2.437028,2.191 7.258433,4.88621 7.256216,4.0563 -8.55e-4,-0.30711 -1.071578,-1.13439 -2.379459,-1.8384 -3.25998,-1.7548 -7.147017,-5.90645 -8.763002,-9.35956 -1.498994,-3.20314 -2.220442,-7.72389 -1.762333,-11.04318 0.167836,-1.21607 0.288788,-3.12306 0.26878,-4.23776 -0.04127,-2.29846 0.116599,-2.36495 2.763434,-1.16398 1.023032,0.4642 2.236049,0.84399 2.695601,0.84399 0.593853,0 0.772864,0.21598 0.618844,0.74668 -0.119195,0.41067 -0.427027,1.56075 -0.684091,2.55576 -0.479635,1.85649 -1.717572,2.66283 -3.209363,2.09041 -1.182084,-0.45359 -0.65619,0.55082 0.639087,1.22061 1.120723,0.57952 1.280086,0.88995 1.280086,2.49357 0,4.8185 2.466461,8.74555 6.897677,10.98232 2.967654,1.49799 3.714711,2.73666 4.03877,6.69654 0.129082,1.57741 0.421098,3.48245 0.648913,4.2334 0.443572,1.46212 2.972118,3.96807 4.003872,3.96807 0.97461,0 0.748876,-0.56608 -0.839677,-2.10569 -0.805678,-0.78085 -1.703696,-1.99629 -1.995595,-2.70096 -0.465909,-1.12475 -0.433378,-1.35241 0.266339,-1.86403 0.438384,-0.32054 1.299701,-0.5828 1.914041,-0.5828 1.920057,0 2.512345,-0.83375 3.043533,-4.28434 0.419293,-2.72369 0.386005,-3.70904 -0.216843,-6.41858 -0.821529,-3.69246 -2.640975,-7.76224 -4.761703,-10.6511 -0.813201,-1.10777 -1.478551,-2.44939 -1.478551,-2.98142 0,-0.95676 0.04554,-0.96453 4.177968,-0.71278 4.428083,0.26976 6.489417,0.7968 6.489417,1.6592 0,0.28926 -0.693622,1.23621 -1.541385,2.10437 -1.168522,1.19661 -1.593119,2.03737 -1.755233,3.47558 -0.248878,2.20791 0.408253,3.72879 1.611117,3.72879 1.46633,0 3.766022,-2.57291 4.576401,-5.12011 0.872022,-2.74092 1.437393,-2.88373 5.052578,-1.27623 2.400332,1.06732 4.718277,0.93437 4.265817,-0.24467 -0.13336,-0.34751 0.11913,-0.9934 0.56108,-1.43532 0.81552,-0.81549 3.41944,-1.19278 9.82963,-1.42425 3.23588,-0.11691 3.60628,0.37051 2.04373,2.68905 -1.51697,2.25093 -2.46185,2.53146 -8.54969,2.53849 -5.808452,0.006 -7.671026,0.44549 -9.621659,2.2667 -2.159425,2.01616 -2.808117,4.79614 -1.541193,6.60483 1.582988,2.25993 6.801524,-0.13643 8.329402,-3.8249 0.73541,-1.77534 -0.11084,-2.55605 -1.11293,-1.02673 -1.047221,1.59818 -4.83925,4.51406 -5.527155,4.25011 -0.319434,-0.12256 -0.688542,-0.50366 -0.820238,-0.84683 -0.332345,-0.86605 2.594599,-5.14624 3.726823,-5.44992 2.120723,-0.5688 7.32918,-0.24071 9.12577,0.57484 2.28886,1.03902 2.6882,2.34133 1.55579,5.0736 -1.68807,4.07294 -7.36119,5.53751 -17.960772,4.63676 -3.333728,-0.28331 -3.903217,-0.24099 -3.705094,0.27529 0.513037,1.33687 5.555608,2.16802 13.230707,2.18075 5.453679,0.01 7.467419,0.15626 7.983959,0.58391 0.37992,0.3145 1.77227,2.61855 3.09412,5.12011 2.69177,5.09409 5.07693,8.759 7.51155,11.5418 1.80564,2.06388 1.94242,2.49879 1.0063,3.19964 -0.34801,0.26054 -1.20549,2.66636 -1.90553,5.34627 -1.28985,4.93785 -1.79156,5.80596 -2.98579,5.16629 -0.96166,-0.5151 -3.56526,-3.46119 -4.15842,-4.70541 -1.65369,-3.46884 -0.49959,-7.25349 2.21188,-7.25349 0.76123,0 1.06834,0.30044 1.27667,1.24889 0.27075,1.23265 -0.18699,2.43775 -1.75403,4.6179 -0.93545,1.30144 0.003,1.26269 1.32082,-0.0545 1.5167,-1.51663 2.12245,-3.95266 1.52996,-6.15286 -0.44888,-1.66696 -0.57038,-1.78014 -1.64074,-1.52837 -1.88231,0.44274 -3.90338,1.86091 -4.61608,3.23904 -0.50591,0.97829 -0.59426,1.90513 -0.36769,3.85721 0.3089,2.66139 0.84071,3.5474 3.97139,6.61635 1.20487,1.18112 4.54149,3.09001 5.40115,3.09001 0.14182,0 0.23048,-0.91203 0.19703,-2.02671 -0.0678,-2.25788 0.34892,-4.56629 1.54037,-8.53351 0.82293,-2.74012 1.57723,-3.31042 2.82141,-2.13322 3.24429,3.06964 7.5409,6.54962 10.10894,8.18759 l 3.14466,2.00574 -1.19768,1.25004 c -0.65873,0.68755 -1.57402,1.25007 -2.03398,1.25007 -0.86054,0 -3.23992,-1.77461 -6.78935,-5.06366 l -2.02492,-1.8764 -0.70023,1.65666 c -1.12502,2.66165 -0.7155,6.66116 0.76308,7.45243 1.059,0.56673 4.30933,0.081 4.08232,-0.6102 -0.0889,-0.27068 -0.94368,-0.55026 -1.89949,-0.62127 -1.48314,-0.11014 -1.81724,-0.32083 -2.27966,-1.43716 -0.38073,-0.91913 -0.41147,-1.515 -0.1034,-2.00424 0.76898,-1.22116 1.77684,-1.0136 3.4305,0.7065 2.46271,2.56163 10.29709,7.19559 11.43015,6.76082 0.30985,-0.11885 0.6776,0.0814 0.81721,0.44531 0.15821,0.41208 0.57363,0.57786 1.10205,0.43967 0.46652,-0.12192 0.84821,-0.0632 0.84821,0.13062 0,1.04541 8.9492,2.65618 8.97357,1.61517 0.008,-0.33614 0.18407,-0.2604 0.4479,0.19256 0.51256,0.87998 0.14546,0.85518 4.67067,0.31532 z m -2.46469,-0.71611 c 0.4107,-0.1074 1.08274,-0.1074 1.49343,0 0.4107,0.10724 0.0747,0.19513 -0.74671,0.19513 -0.82138,0 -1.15741,-0.0879 -0.74672,-0.19513 z m -74.067463,-39.28 c -0.106068,-0.176 -0.400849,-1.07953 -0.655067,-2.00781 -0.352326,-1.28657 -0.337827,-1.76681 0.06099,-2.02017 0.849235,-0.53949 4.006751,-0.39229 4.50671,0.21009 0.549891,0.66255 0.203089,2.3517 -0.696248,3.3912 -0.643193,0.74344 -2.849134,1.03607 -3.216396,0.42669 z m 124.929523,-4.54183 c -1.65456,-0.31617 -3.59982,-0.88072 -4.32281,-1.25458 -2.75433,-1.42426 -4.55913,-4.79774 -3.56275,-6.6594 0.25873,-0.48342 1.38766,-1.34373 2.50871,-1.91178 1.12106,-0.56805 2.28974,-1.3358 2.59709,-1.70613 0.49941,-0.6017 0.25932,-0.67329 -2.2583,-0.67329 -3.497,0 -6.06204,-0.96285 -6.90441,-2.59175 -1.35306,-2.6164 -1.21395,-2.68416 4.91918,-2.39634 6.82075,0.32011 7.43421,0.57984 7.08173,2.99849 -0.82285,5.64631 -0.78763,6.84422 0.2456,8.35049 1.56328,2.27905 3.067,3.18145 5.35264,3.21217 1.75829,0.0237 2.08725,-0.11433 2.55192,-1.06987 0.39284,-0.80789 0.41833,-1.51379 0.0968,-2.67838 -0.4862,-1.76079 -2.71259,-4.54478 -3.63453,-4.54478 -0.78408,0 -0.75663,0.6316 0.0631,1.45125 0.36239,0.36238 1.05328,1.55042 1.53532,2.64007 0.77103,1.74295 0.80101,2.05664 0.2493,2.60832 -0.5517,0.55168 -0.82959,0.52381 -2.31057,-0.2317 -2.16037,-1.10209 -2.59652,-1.65661 -2.92258,-3.71571 -0.22752,-1.43691 -0.0756,-1.94884 1.03004,-3.47039 1.4095,-1.93978 4.70826,-4.12738 5.88276,-3.90119 0.44811,0.0863 1.11469,1.13663 1.7137,2.7003 1.44566,3.77383 4.11979,5.87248 5.59858,4.39376 1.26497,-1.26492 0.1395,-6.30194 -1.55327,-6.95147 -1.01786,-0.39057 -0.98773,-0.0161 0.16445,2.04554 0.8871,1.58712 1.00857,2.13328 0.63126,2.83828 -1.13141,2.11396 -3.42406,-0.17496 -3.42406,-3.41851 0,-3.76271 3.10981,-5.69906 8.74285,-5.44385 3.78149,0.17133 3.92357,0.6422 1.36097,4.51029 -2.40318,3.6274 -3.14504,5.39855 -4.13281,9.86696 -0.43469,1.96639 -0.97244,3.75735 -1.19503,3.97992 -1.25485,1.25479 -11.49001,1.90512 -16.1048,1.02328 z M 78.392474,160.70678 c -0.24294,-0.45391 -0.441707,-1.47927 -0.441707,-2.27857 0,-1.98639 -2.325622,-6.48426 -4.083112,-7.89695 -0.793321,-0.63768 -2.359307,-1.66083 -3.479965,-2.27367 -2.332834,-1.2757 -2.295337,-1.05446 -1.284048,-7.57691 0.878195,-5.66403 0.74973,-6.61283 -1.160163,-8.56865 -1.518301,-1.5548 -1.606,-1.79608 -1.676896,-4.61349 -0.0632,-2.51146 -0.254924,-3.20902 -1.235266,-4.49426 -1.656529,-2.17171 -2.042287,-3.40981 -1.572615,-5.04739 0.556717,-1.94106 -0.142193,-4.19921 -1.98076,-6.39972 -1.725761,-2.06551 -1.739248,-2.67565 -0.154448,-6.98622 1.784021,-4.852442 1.754396,-10.992033 -0.07693,-15.943309 -1.479691,-4.000565 -1.464794,-4.372664 0.249983,-6.244686 2.010159,-2.194468 2.593093,-4.344427 1.928754,-7.113572 -0.277771,-1.15782 -0.435397,-2.160506 -0.350278,-2.228188 6.489538,-5.160321 8.475317,-6.304515 8.475317,-4.883448 0,0.271809 -0.777886,2.182808 -1.728636,4.246669 -1.633748,3.546481 -1.701832,3.853107 -1.240322,5.585911 0.336777,1.264512 1.137586,2.46239 2.58061,3.86017 1.150764,1.114682 2.282007,2.026705 2.513869,2.026705 0.643264,0 0.04532,-5.467624 -1.306517,-11.946899 -0.591489,-2.834989 -0.0603,-5.288381 1.56255,-7.216942 1.550612,-1.842704 6.537392,-5.041486 9.388862,-6.022482 2.937818,-1.010716 7.004183,-1.148128 7.004183,-0.236702 0,0.681482 -2.053595,2.377421 -5.593421,4.619252 -2.79492,1.770071 -3.990405,3.290653 -4.713991,5.995938 -0.560934,2.097178 -0.140435,5.005396 0.766597,5.301845 0.267593,0.08741 1.640504,-1.372348 3.050914,-3.244016 1.81233,-2.405029 2.654255,-3.943736 2.87082,-5.24671 0.546068,-3.285493 2.07331,-5.294798 4.932463,-6.48937 1.924913,-0.804251 11.580459,-2.187131 12.583519,-1.802244 0.65813,0.252538 0.55123,0.499448 -0.82751,1.911354 -1.42079,1.454932 -1.4874,1.617662 -0.64906,1.585587 1.46836,-0.05612 1.4095,0.832763 -0.17225,2.601335 -1.95798,2.189242 -2.43452,3.192944 -2.4317,5.121698 0.003,1.874248 0.70695,4.688756 1.25844,5.029586 0.20672,0.12772 0.96765,-0.952001 1.69098,-2.39945 1.16839,-2.33804 1.31515,-3.048388 1.31515,-6.365714 0,-3.626403 0.037,-3.765089 1.28211,-4.812767 1.42918,-1.202523 4.3054,-1.803485 6.41452,-1.340257 0.7562,0.166084 3.6061,1.217423 6.33311,2.336314 3.78526,1.553093 4.98892,2.236961 5.08803,2.890834 0.16981,1.120263 -1.65648,1.784602 -5.8154,2.115465 -2.13829,0.170117 -3.55334,0.531781 -4.4803,1.145113 -1.54426,1.021763 -3.70172,4.940762 -3.70172,6.724138 v 1.195443 l 2.88019,-1.553657 c 3.42692,-1.848575 4.55408,-2.790947 5.94406,-4.969611 2.32971,-3.651593 7.40671,-3.792456 11.29025,-0.313222 1.70318,1.525855 1.8033,1.725144 1.18537,2.359247 -0.57954,0.594722 -1.06506,0.630296 -3.43519,0.251683 -4.28218,-0.684046 -6.82333,0.376872 -8.74129,3.649464 -1.29151,2.203708 -1.08971,2.784094 0.80063,2.302627 0.76087,-0.193774 2.10281,-0.474469 2.98208,-0.62375 1.11043,-0.188516 2.28286,-0.917135 3.83891,-2.385726 1.80328,-1.701922 2.53179,-2.11511 3.73502,-2.118432 1.34457,-0.0032 1.96644,0.479193 6.18843,4.805543 8.63143,8.844779 10.06086,13.953351 7.62901,27.264893 -1.44604,7.91531 -2.23707,9.94164 -5.60302,14.35291 -1.52808,2.00265 -3.54545,5.09783 -4.48304,6.87819 -2.04307,3.87957 -3.50303,5.94429 -5.22347,7.38721 -2.35039,1.97123 -14.0448,7.52785 -18.3479,8.71802 -3.04897,0.84329 -8.31596,0.75512 -13.014213,-0.2179 -6.702811,-1.38817 -9.252417,-1.51416 -14.115751,-0.69752 -2.869617,0.48183 -5.301239,0.64247 -7.035691,0.46479 -5.509125,-0.56441 -6.542163,1.38717 -2.312967,4.36953 4.057114,2.86102 7.379254,7.73416 8.980553,13.17331 0.678188,2.30361 0.110777,3.10694 -2.194499,3.10694 -1.184247,0 -1.76218,-0.22919 -2.081233,-0.82531 z M 95.213396,75.807276 c 1.365818,-2.719379 2.079231,-4.816798 2.50347,-7.360143 0.326318,-1.95633 0.753915,-3.940979 0.950212,-4.410335 0.394715,-0.94376 -4.393577,3.02536 -5.787556,4.797447 -1.176152,1.495167 -1.835188,4.2358 -1.565306,6.509448 0.279617,2.355699 0.976565,4.266763 1.556046,4.266763 0.238139,0 1.292546,-1.711437 2.343134,-3.80318 z M 72.280377,159.59874 c -2.259449,-1.54677 -4.006934,-4.12956 -4.606454,-6.80838 -0.607196,-2.71311 -0.346647,-3.63185 1.029957,-3.63185 1.121334,0 3.802018,1.6616 5.03755,3.1225 1.522615,1.80036 2.993681,5.28474 2.85266,6.75684 -0.118663,1.23866 -0.306124,1.44344 -1.416843,1.54763 -0.828976,0.0777 -1.849852,-0.26996 -2.89687,-0.98674 z m 14.062069,-6.88461 c -1.095085,-1.09502 0.909804,-5.47567 2.50605,-5.47567 1.683676,0 1.082138,3.81131 -0.810785,5.1371 -0.99287,0.6954 -1.280893,0.75292 -1.695265,0.33857 z m 151.372904,-7.17264 c -0.38091,-0.58132 -0.72137,-1.67959 -0.75656,-2.44057 -0.055,-1.18798 0.16214,-1.50612 1.53499,-2.24978 2.59074,-1.4034 2.02289,-2.61406 -0.59192,-1.26195 -1.93919,1.00273 -2.50047,0.56411 -2.50047,-1.95404 0,-1.93964 0.17638,-2.34906 1.70606,-3.96014 l 1.70607,-1.79686 0.82714,1.06324 c 0.89817,1.15457 3.61901,11.31757 3.20798,11.98259 -0.30035,0.48595 -3.04198,1.67447 -3.86261,1.67447 -0.31794,0 -0.88976,-0.47562 -1.27068,-1.05696 z M 57.615364,143.43926 c -3.165735,-3.11831 -3.378484,-4.54684 -1.477659,-9.92184 1.503756,-4.2522 1.600257,-4.41265 2.653951,-4.41265 1.094678,0 4.205753,1.58736 4.472281,2.28189 0.11326,0.29514 -0.101246,1.27175 -0.476671,2.17024 -0.939194,2.2477 -0.155207,3.02599 1.052586,1.04494 0.48409,-0.79401 0.880886,-1.56712 0.881761,-1.71802 0.0045,-0.77738 1.293071,-0.59203 2.286268,0.32887 1.012314,0.93863 1.128892,1.35336 1.128892,4.01617 0,1.63321 -0.09742,2.96947 -0.216501,2.96947 -0.119082,0 -2.396596,-1.05602 -5.061154,-2.34672 -2.66456,-1.29068 -5.0633,-2.34672 -5.33054,-2.34672 -0.939352,0 -0.47172,0.9008 0.840926,1.61989 2.997387,1.64198 3.087962,1.79962 2.542794,4.42554 -0.773633,3.72639 -1.189584,3.96471 -3.296934,1.88894 z m 186.610976,0.70582 c -0.10224,-0.17602 -0.32096,-1.61631 -0.48589,-3.20065 l -0.2999,-2.88063 1.90919,-0.81834 c 3.05119,-1.30783 3.82176,-1.28914 4.31768,0.10465 0.35235,0.99037 0.24093,1.55943 -0.62485,3.19118 -1.28074,2.41383 -4.2266,4.61805 -4.81623,3.60371 z m -50.42775,-3.01269 c -6.17662,-1.58513 -9.54982,-3.6289 -16.10167,-9.7557 -2.40885,-2.25256 -5.05176,-4.58595 -5.87314,-5.18533 -4.40334,-3.21312 -5.76116,-5.31403 -6.64837,-10.28677 -1.29549,-7.26117 -0.52663,-14.74391 2.18519,-21.266803 2.29988,-5.532065 2.59986,-7.305362 1.75175,-10.355669 -1.32792,-4.776032 -0.67898,-8.570697 2.08551,-12.194923 1.36641,-1.791374 4.30708,-2.919684 6.63811,-2.546956 2.52272,0.403383 3.94316,1.258239 5.74573,3.457915 1.3982,1.70626 6.97641,6.185616 7.70302,6.185616 0.62387,0 -0.16271,-4.786755 -0.96263,-5.858107 -1.61615,-2.164569 -2.73578,-2.698076 -7.83093,-3.731514 -0.5867,-0.119012 -1.35476,-0.413527 -1.70678,-0.654486 -0.54232,-0.371228 -0.45725,-0.599834 0.55716,-1.497134 1.69094,-1.495747 3.94755,-1.413729 6.89679,0.250635 1.32753,0.74918 3.37911,1.461898 4.79387,1.66538 1.36024,0.19566 3.0365,0.499996 3.72503,0.676337 l 1.25185,0.320591 -1.29642,-2.305981 c -1.52874,-2.719186 -3.76977,-4.208531 -6.34838,-4.219013 -0.95014,-0.0032 -4.10882,0.760936 -7.01929,1.699552 -5.6438,1.820079 -6.98488,1.770926 -5.14397,-0.188533 1.12752,-1.200136 6.14199,-3.396442 12.26851,-5.373543 3.49246,-1.127052 4.60481,-1.309327 6.74263,-1.104862 3.44197,0.329202 5.63899,0.998912 6.67477,2.03464 0.76481,0.764774 0.82727,1.197249 0.56972,3.945414 -0.23383,2.495271 -0.1087,3.755736 0.6535,6.580194 0.51852,1.921514 1.09666,3.493683 1.28476,3.493683 0.70321,0 2.5272,-2.637344 2.78895,-4.032624 0.41155,-2.193565 -0.061,-3.579444 -2.3855,-6.997834 -2.16802,-3.188122 -2.30938,-3.903178 -0.77158,-3.903178 2.64255,0 5.05297,2.438878 5.05297,5.112619 0,2.203128 1.05972,4.039688 4.29788,7.448467 3.33949,3.515454 3.79284,3.569429 3.80042,0.452504 0.0113,-4.642135 -1.46203,-6.616849 -8.41925,-11.284367 -2.99168,-2.007096 -5.43943,-3.84127 -5.43943,-4.07594 0,-1.244789 9.4911,-0.438651 12.99053,1.103378 5.08012,2.238541 6.8508,4.42364 6.8508,8.454216 0,1.44653 0.27907,3.297943 0.62016,4.11424 0.60338,1.444047 4.7224,6.168571 5.37796,6.168571 0.62259,0 0.88591,-3.324229 0.40484,-5.110717 -0.26561,-0.986382 -1.21072,-2.592046 -2.10023,-3.568139 -2.45254,-2.691255 -4.72942,-5.820935 -4.72942,-6.500804 0,-2.01624 7.31759,2.117739 10.0252,5.663607 2.16893,2.840439 2.26678,4.113917 0.60436,7.864848 -1.13478,2.56039 -1.42936,3.846592 -1.5857,6.923426 l -0.19199,3.778861 1.13859,-0.745986 c 1.24672,-0.816846 2.97946,-3.575799 3.40871,-5.427518 0.14998,-0.646714 -0.0402,-3.010056 -0.42224,-5.251871 -0.38214,-2.241814 -0.58704,-4.183792 -0.45531,-4.315512 0.39097,-0.39095 2.12393,0.232832 3.22417,1.160546 0.98445,0.830085 1.00449,0.954822 0.5092,3.16798 -0.6612,2.954356 -0.13821,5.008508 1.87338,7.358514 0.82479,0.963531 1.49961,2.024255 1.49961,2.357183 0,0.332895 -0.47296,1.769184 -1.051,3.191718 -1.5816,3.892149 -2.07112,7.720614 -1.48313,11.59941 0.58703,3.872509 1.81056,7.320799 2.96977,8.369829 1.06792,0.9664 1.0546,0.76606 -0.24181,-3.63484 -1.36712,-4.641004 -1.73198,-8.865145 -1.05032,-12.16025 0.54221,-2.621105 2.17496,-6.323108 3.01873,-6.844568 0.5975,-0.369261 3.38481,2.295015 3.38481,3.235404 0,0.386935 -0.40606,1.069287 -0.90236,1.516341 -1.05721,0.95229 -1.57256,2.174439 -2.11003,5.003944 -0.46591,2.452876 0.0382,5.100799 1.54031,8.091379 0.57496,1.14467 1.04537,2.35582 1.04537,2.69148 0,0.33563 -1.00805,1.25569 -2.24014,2.04457 -5.16071,3.30433 -7.54362,7.27058 -6.103,10.15822 0.89352,1.79102 0.84485,2.15833 -0.44563,3.36278 -1.53821,1.43568 -2.732,3.9201 -2.732,5.68564 0,1.85591 0.73968,2.40416 1.08785,0.80632 0.74297,-3.4098 1.30797,-4.60544 2.47217,-5.23167 0.66724,-0.35891 2.01133,-1.38438 2.98686,-2.27882 0.97553,-0.89443 2.29201,-1.90238 2.92553,-2.23985 1.11243,-0.59261 1.19198,-0.55886 2.32493,0.98624 0.64519,0.87991 1.54892,1.91127 2.0083,2.29192 0.45937,0.38064 0.72662,0.97504 0.59391,1.32088 -0.28606,0.74543 -4.05968,3.32048 -4.866,3.32048 -0.30846,0 -1.05957,-0.75362 -1.66914,-1.67467 -1.06098,-1.60318 -2.6738,-2.80853 -2.19028,-1.6369 0.12208,0.29599 0.53195,1.26253 0.91066,2.14784 0.67058,1.56771 0.66197,1.63626 -0.33065,2.62883 -0.56056,0.56054 -2.0328,1.37222 -3.27163,1.80373 -2.80152,0.97585 -6.23178,3.96157 -6.76342,5.88696 -0.21541,0.78012 -0.28916,2.32775 -0.16389,3.43917 l 0.2278,2.02076 -7.84882,-0.32614 c -11.72224,-0.48709 -15.2106,-0.41037 -18.08951,0.39787 -3.92747,1.10262 -10.87497,1.25916 -14.50764,0.32689 z m 48.45162,-5.91016 c -1.13413,-1.44175 -1.54824,-3.06878 -1.00368,-3.94346 0.46699,-0.75005 3.46842,-2.58255 4.24814,-2.59366 0.6706,-0.01 3.24666,4.63149 2.97037,5.35145 -0.27797,0.72435 -3.36146,2.32169 -4.48178,2.32169 -0.46167,0 -1.24154,-0.5112 -1.73305,-1.13602 z M 52.151077,131.35244 c -1.271015,-1.87038 -1.545512,-5.51004 -0.447344,-5.93142 0.73349,-0.28145 4.428621,1.75886 4.762885,2.62989 0.295821,0.77087 -1.959158,4.89393 -2.676574,4.89393 -0.306266,0 -1.043801,-0.71657 -1.638967,-1.5924 z m 196.698413,-0.52679 c -0.59067,-1.16554 -1.07393,-2.36697 -1.07393,-2.66982 0,-0.67548 3.57537,-2.89114 4.66538,-2.89114 1.04826,0 1.31842,0.83692 0.88725,2.7486 -0.38884,1.72402 -2.33444,4.93155 -2.99133,4.93155 -0.22739,0 -0.89671,-0.95363 -1.48737,-2.11919 z M 61.522993,128.55288 c -1.06353,-0.60103 -1.75892,-1.32771 -1.84512,-1.92818 -0.139516,-0.97183 1.801342,-4.7734 2.437019,-4.7734 1.294688,0 3.215756,4.23625 2.836876,6.25576 -0.321054,1.71128 -1.027047,1.80307 -3.428775,0.44582 z m -6.481247,-3.32031 c -2.905463,-1.43813 -3.054896,-1.83771 -1.638523,-4.3813 0.673791,-1.21002 1.425773,-2.33302 1.671071,-2.49554 0.50359,-0.33364 3.346828,1.14553 4.365543,2.27113 0.867672,0.95873 0.463557,2.90894 -0.909834,4.39078 -1.228704,1.32574 -1.242367,1.32658 -3.488257,0.21493 z m -6.098639,-5.28353 c -1.254254,-2.92591 -1.269329,-4.58218 -0.05607,-6.16009 l 0.785974,-1.0222 1.978058,1.82323 c 1.087937,1.00276 1.978061,2.14518 1.978061,2.5387 0,1.10184 -2.457983,4.72262 -3.205979,4.72262 -0.380362,0 -1.013359,-0.81357 -1.48004,-1.90226 z m 202.934773,-0.0497 c -1.55737,-2.78632 -1.44163,-3.61226 0.79515,-5.67394 1.05082,-0.96856 2.08811,-1.76104 2.30507,-1.76104 0.59877,0 1.33137,2.46553 1.33137,4.48066 0,1.9487 -1.443,4.58929 -2.63313,4.81847 -0.43933,0.0847 -1.08093,-0.58045 -1.79846,-1.86415 z m -9.39036,-0.85642 c -0.40325,-1.0508 -0.30544,-3.41373 0.19611,-4.73741 0.55698,-1.46994 2.05144,-3.12118 2.82487,-3.12118 0.56375,0 2.69375,4.25436 2.69375,5.3804 0,0.31943 -1.1466,1.15954 -2.548,1.86694 -2.97828,1.50336 -2.83499,1.4757 -3.16673,0.61125 z M 58.45545,118.21783 c -2.310283,-1.39244 -2.578193,-2.31604 -1.329599,-4.58374 1.467237,-2.66479 2.540122,-2.62936 4.119581,0.13611 1.170925,2.05012 1.224253,2.32552 0.728062,3.75997 -0.667505,1.92969 -1.263992,2.0463 -3.518044,0.68774 z m -5.852943,-4.92205 c -0.868039,-0.76212 -1.53286,-1.74385 -1.531955,-2.26223 0.0018,-0.86713 1.455573,-3.68922 1.900846,-3.68922 0.114518,0 1.077401,0.42227 2.139749,0.93838 1.364939,0.66311 1.929484,1.19505 1.924524,1.81337 -0.0084,1.0515 -1.712545,4.15618 -2.40636,4.38408 -0.271293,0.0892 -1.183355,-0.44386 -2.026804,-1.18438 z m 196.643933,0.97549 c -0.2471,-0.1724 -0.99649,-1.04208 -1.66531,-1.93259 l -1.21606,-1.61911 1.45197,-1.5093 c 2.30241,-2.39333 2.74916,-2.50543 4.07137,-1.02156 0.6317,0.70896 1.42085,1.289 1.75363,1.289 0.82464,0 0.60165,0.48207 -1.37777,2.97829 -1.68937,2.13048 -2.16022,2.41369 -3.01783,1.81527 z m 3.92854,-6.47747 c -0.62286,-0.94116 -1.13247,-1.88677 -1.13247,-2.10137 0,-0.21459 -0.2453,-0.4843 -0.54511,-0.59935 -1.0187,-0.39088 -2.841,-4.40536 -3.13493,-6.9062 -0.23529,-2.001903 -0.0953,-3.071674 0.73462,-5.616583 0.56392,-1.729014 1.23184,-3.144275 1.48429,-3.145 0.72196,-0.0016 2.2106,1.779118 2.93421,3.510874 0.8316,1.990228 0.81948,5.571461 -0.0265,7.794699 -1.21369,3.18994 -1.18118,3.52827 0.19065,1.98392 1.29642,-1.45944 2.20294,-4.107513 2.20294,-6.435039 0,-1.864249 -1.39458,-5.272141 -2.97299,-7.264933 l -1.35767,-1.71413 1.40704,-1.285073 c 2.04117,-1.864233 2.61634,-1.671314 4.11917,1.381654 2.30424,4.681015 2.8382,9.67538 1.5642,14.630651 -0.63041,2.45201 -3.10059,7.06562 -3.93127,7.34249 -0.22208,0.074 -0.9134,-0.63544 -1.53626,-1.57661 z M 47.891388,107.45101 c -1.719041,-2.60417 -2.447729,-5.19111 -2.681925,-9.521199 -0.257148,-4.754374 0.460113,-7.92795 2.525103,-11.172547 1.482097,-2.328735 2.568518,-2.595577 3.307217,-0.812282 0.608911,1.469977 0.29582,2.881658 -1.320583,5.954348 -2.072003,3.938754 -1.642607,7.89881 1.324014,12.21044 0.717104,1.04222 1.303827,2.10958 1.303827,2.37189 0,0.60499 -2.17368,2.53799 -2.874139,2.55589 -0.290024,0.008 -1.002605,-0.70653 -1.583514,-1.58654 z m 8.617935,0.10079 c -1.404243,-1.31088 -1.485746,-2.61604 -0.307571,-4.92535 1.454899,-2.851693 1.800223,-5.72832 1.04263,-8.685352 -0.362998,-1.416841 -1.137386,-3.390653 -1.720862,-4.386242 l -1.060868,-1.810098 1.692031,-0.863176 c 0.930618,-0.474743 1.968614,-0.757034 2.30666,-0.62733 1.378226,0.528862 3.065547,8.471842 2.667379,12.556587 -0.309806,3.178271 -1.68274,7.683801 -2.731627,8.964311 l -0.71436,0.87209 z m -4.21471,-4.32053 c -0.322087,-0.38479 -1.070606,-2.06483 -1.663366,-3.733418 l -1.077751,-3.033777 1.47019,-3.306732 c 0.808607,-1.818708 1.699402,-3.306731 1.979548,-3.306731 0.875963,0 2.915167,5.138454 2.878555,7.253467 -0.0398,2.300095 -1.660659,6.826811 -2.444419,6.826811 -0.306425,0 -0.820666,-0.31483 -1.142757,-0.69962 z m -0.07231,-17.558742 c -0.869017,-0.889914 -1.580032,-1.861185 -1.580032,-2.158393 0,-1.04542 2.677048,-3.903728 3.656178,-3.903728 0.954484,0 2.744253,2.356247 2.744253,3.612825 0,0.832537 -2.197217,4.067329 -2.762717,4.067329 -0.262712,0 -1.188667,-0.728119 -2.057682,-1.618033 z M 248.52769,85.363999 c -1.71113,-1.16269 -1.70368,-0.924827 -0.14353,-4.580241 0.37562,-0.880013 0.93381,-1.600036 1.24043,-1.600036 0.30664,0 1.36276,0.689222 2.34693,1.531595 l 1.78941,1.531596 -1.14038,2.095146 c -0.63599,1.168448 -1.44403,2.095146 -1.82691,2.095146 -0.37758,0 -1.39726,-0.482951 -2.26596,-1.073206 z m -4.52806,-3.765089 c -1.38127,-1.470219 -1.90645,-3.74148 -1.34621,-5.821967 0.61504,-2.283921 1.46008,-2.214755 3.96092,0.324138 l 2.00692,2.037462 -1.38291,2.09363 c -0.7606,1.151515 -1.586,2.158377 -1.83421,2.237493 -0.24821,0.07918 -0.88023,-0.312721 -1.40451,-0.870756 z M 57.334235,79.953317 c -0.579605,-1.219455 -0.967156,-2.443038 -0.861224,-2.719072 0.105939,-0.27605 1.132452,-1.01341 2.28116,-1.638594 l 2.088555,-1.136663 0.707995,1.080479 c 0.497586,0.759371 0.625325,1.52113 0.429831,2.563179 -0.304811,1.624693 -2.120437,4.067861 -3.023018,4.067861 -0.313207,0 -1.043689,-0.997735 -1.623299,-2.21719 z M 251.93584,79.414021 c -0.88007,-1.271865 -1.60011,-2.527508 -1.60011,-2.790302 0,-0.668581 3.08171,-5.028408 3.74974,-5.304926 0.30224,-0.12514 0.65227,0.105305 0.77787,0.512026 0.12563,0.406722 0.50234,1.370011 0.83724,2.140655 0.33489,0.770644 0.60889,2.117674 0.60889,2.993381 0,1.781763 -1.27883,4.513479 -2.18323,4.663647 -0.32466,0.05386 -1.31034,-0.942615 -2.1904,-2.214481 z m -203.385314,0.13272 c -0.751875,-2.156716 -0.563417,-4.362634 0.508622,-5.953349 0.537385,-0.797381 1.251322,-1.449787 1.586534,-1.449787 0.858186,0 2.54133,3.147 2.549731,4.767275 0.0048,0.948872 -0.385715,1.746576 -1.305888,2.66671 -1.702097,1.702019 -2.738229,1.69244 -3.338999,-0.0308 z m 5.495901,-5.779975 c -0.69888,-1.101959 -1.270691,-2.23767 -1.270691,-2.523783 0,-0.286129 0.894061,-1.307166 1.986797,-2.268987 1.837849,-1.617662 2.042847,-1.698036 2.734529,-1.072109 0.411253,0.372163 0.970963,1.215552 1.243792,1.874199 0.272833,0.658631 0.861554,1.364769 1.308274,1.569186 0.446716,0.204401 0.673064,0.570001 0.502996,0.812411 -0.386257,0.550569 -4.592697,3.612664 -4.962757,3.612664 -0.14974,0 -0.844064,-0.901622 -1.54294,-2.003581 z m 193.515783,0.923651 c -0.70404,-0.577064 -1.69157,-1.050162 -2.1945,-1.051339 -0.50293,-0.0013 -1.00122,-0.24212 -1.10732,-0.535458 -0.29814,-0.824264 1.78554,-5.013426 2.49365,-5.013426 0.78351,0 4.12509,1.670814 4.49558,2.247829 0.47386,0.738005 -1.18886,5.439661 -1.9157,5.416972 -0.27039,-0.0081 -1.06766,-0.487499 -1.77171,-1.064578 z M 60.872389,70.436926 c -0.228874,-0.586675 -0.602762,-1.545029 -0.830861,-2.129672 -0.606061,-1.553383 -0.194121,-2.166973 2.124465,-3.164353 2.485394,-1.069141 3.234126,-1.114714 3.578302,-0.21785 0.728309,1.897857 -0.24186,4.108112 -2.474756,5.638047 -1.729209,1.184816 -1.88899,1.176414 -2.39715,-0.126108 z m 180.918251,0.155135 c -0.28588,-0.554664 -1.00036,-1.524049 -1.58773,-2.154184 -1.22662,-1.315939 -1.38507,-3.093461 -0.36655,-4.111934 0.57809,-0.578064 0.83124,-0.60672 1.4401,-0.163021 0.40629,0.296095 1.28778,0.868853 1.95884,1.272801 2.98682,1.797906 2.986,1.794229 0.932,4.089647 l -1.85688,2.075166 z M 51.068955,66.233282 c 0,-2.5795 1.330317,-5.093107 2.809423,-5.308345 0.709791,-0.10337 1.0332,0.365519 1.851965,2.684659 0.545598,1.5454 0.916127,2.885674 0.823406,2.9784 -0.370021,0.369986 -4.314044,1.9289 -4.880127,1.9289 -0.446439,0 -0.604667,-0.597561 -0.604667,-2.283614 z M 250.23545,67.63777 c -1.93013,-1.019021 -2.32938,-2.279534 -1.41508,-4.467664 0.99518,-2.381678 1.49286,-2.88319 2.24321,-2.260505 1.63656,1.358157 2.71056,5.080835 2.00001,6.932376 -0.3331,0.868047 -0.8707,0.829231 -2.82814,-0.204207 z M 57.872602,63.766779 c -0.304542,-0.735198 -1.004839,-1.872812 -1.556214,-2.528056 -1.078682,-1.28188 -1.080667,-1.278155 1.340937,-2.527863 1.761526,-0.909089 2.038486,-1.945526 0.401064,-1.500892 -2.809718,0.762968 -2.944076,0.665952 -2.850163,-2.057942 0.119437,-3.464269 1.092656,-4.962629 3.989615,-6.142414 2.528921,-1.02989 6.383725,-1.274558 8.343337,-0.529555 2.263602,0.86058 10.836285,6.947745 10.836285,7.694473 0,0.745616 -6.672667,6.412304 -9.116656,7.742224 -1.274066,0.693286 -3.257512,0.637021 -3.257512,-0.0924 0,-0.179453 0.645024,-0.818233 1.433386,-1.419518 1.734887,-1.323196 2.833568,-3.497393 2.833568,-5.607375 0,-1.599778 -0.613575,-3.182107 -1.450636,-3.741012 -1.077863,-0.719669 -3.089168,-0.29308 -4.638277,0.983769 l -1.589702,1.31031 -0.427646,-1.124745 c -0.235207,-0.618605 -0.427646,-1.295216 -0.427646,-1.503568 0,-1.039405 -1.077995,-2.552343 -1.818581,-2.552343 -0.771953,0 -0.8073,0.210093 -0.520428,3.09338 0.169274,1.701374 0.440507,3.189397 0.602738,3.306748 0.501016,0.362358 3.443052,5.416987 3.443052,5.915403 0,0.452246 -3.82832,2.61809 -4.6277,2.61809 -0.21401,0 -0.638281,-0.601511 -0.942821,-1.33671 z M 137.77888,62.91094 c -1.78955,-1.145855 -2.65093,-2.823378 -2.65093,-5.16266 0,-2.963579 -1.50737,-5.437209 -4.18896,-6.87416 -1.24786,-0.668694 -2.35398,-1.130648 -2.45805,-1.026585 -0.52983,0.529798 1.38184,4.182938 3.46713,6.625574 2.23056,2.6128 2.73961,3.897889 1.41976,3.584152 -1.21621,-0.28908 -8.67422,-5.05142 -10.56471,-6.746118 -1.8893,-1.693633 -1.96826,-1.858605 -1.93997,-4.053427 0.0162,-1.258352 0.18046,-3.247935 0.36496,-4.421301 0.2464,-1.567042 0.14321,-2.792786 -0.38871,-4.617413 -0.6876,-2.358618 -0.76329,-2.448651 -1.49891,-1.782941 -1.23954,1.121714 -2.6675,4.846342 -2.35047,6.130851 0.15242,0.617573 0.85518,2.02798 1.56167,3.134244 1.51577,2.373486 1.34559,3.039454 -0.60766,2.377953 -3.64575,-1.234678 -4.84612,-3.19625 -4.42447,-7.230229 0.26456,-2.530976 -0.56851,-7.305378 -1.42991,-8.195018 -0.59214,-0.611542 -1.78115,2.251345 -1.78115,4.28863 0,1.291523 0.33003,2.40906 1.0255,3.472493 1.36451,2.08647 1.60013,2.807977 1.15177,3.526807 -0.56831,0.911121 -1.66888,0.04596 -3.23684,-2.544328 -1.68026,-2.775837 -2.40631,-6.540555 -1.83865,-9.533694 0.42991,-2.266795 0.57498,-2.528057 2.85145,-5.135568 1.3887,-1.590634 1.94007,-4.200145 1.00902,-4.775531 -0.54992,-0.339862 -3.12478,3.951687 -3.42094,5.701729 -0.28989,1.712969 -1.31045,2.32693 -1.31045,0.788351 0,-0.879384 0.8989,-3.250692 5.03567,-13.284095 0.64582,-1.56638 0.63829,-1.681474 -0.14767,-2.256151 -1.59136,-1.163577 -2.38651,-0.52883 -5.16123,4.120062 -3.14395,5.267514 -4.20978,5.968396 -3.78886,2.491498 0.25462,-2.103209 0.15679,-2.474275 -1.27401,-4.832054 -1.951295,-3.215456 -1.8721,-3.149355 -2.592656,-2.163973 -1.41747,1.938414 -0.437057,5.548772 2.296296,8.456072 1.49058,1.585442 1.44965,3.838738 -0.0978,5.384977 -0.948231,0.947485 -1.481196,1.113441 -3.511499,1.093364 -2.066818,-0.02048 -2.531408,-0.183856 -3.403041,-1.197153 -0.555193,-0.645407 -1.009237,-1.594779 -1.008985,-2.109708 4.27e-4,-0.960515 2.332753,-14.817061 2.822134,-16.7668122 0.299262,-1.1922985 1.634389,-1.8764409 3.661931,-1.8764409 1.62401,0 3.83431,-1.3248889 4.60141,-2.7581628 0.86215,-1.6108567 0.37688,-1.6558975 -1.86225,-0.1728256 -2.316699,1.5344342 -5.810117,2.2055143 -5.810117,1.1160855 0,-0.3552141 0.768606,-1.3402089 1.70801,-2.1888558 1.407016,-1.2710916 2.032777,-1.5430133 3.550897,-1.5430133 1.01359,0 2.74115,0.306045 3.83903,0.6801108 1.73321,0.5905453 1.99614,0.8358748 1.99614,1.8625078 0,2.657583 -2.02636,3.8789088 -7.467167,4.5005779 -2.592873,0.2962564 -3.8096,0.8495338 -3.383682,1.5386596 0.128613,0.208077 1.874896,0.378323 3.880639,0.378323 4.44245,0 8.02141,0.866724 11.56743,2.801333 3.47395,1.895276 9.05704,6.102678 9.05704,6.825362 0,1.103362 -0.82303,1.040969 -2.21461,-0.167875 -1.85431,-1.610808 -3.03369,-2.205337 -4.37474,-2.205337 -1.0004,0 -1.05049,0.07934 -0.56142,0.888818 0.73264,1.212682 3.0917,2.349329 5.65171,2.723136 2.84261,0.415075 4.05431,1.100203 6.14385,3.473947 1.90641,2.165698 1.92936,2.219012 1.34968,3.135357 -0.32432,0.512671 -1.49815,0.0845 -6.72519,-2.453376 -3.48276,-1.690956 -6.47123,-3.074465 -6.64104,-3.074465 -0.47217,0 -0.36738,1.648997 0.17125,2.694772 0.72845,1.414293 2.14971,2.855501 3.5736,3.623742 0.95256,0.513945 2.49261,0.695527 6.01917,0.709751 3.39796,0.0129 4.94156,0.187113 5.45458,0.612864 1.28349,1.065159 0.5079,1.49099 -2.75526,1.512777 -2.27846,0.01451 -3.71211,0.271228 -5.09158,0.909265 l -1.92013,0.888108 1.87635,0.96524 c 2.19752,1.13047 3.76511,0.974497 5.79938,-0.577047 1.34152,-1.023182 1.96697,-1.245838 3.22978,-1.149822 0.82397,0.06273 9.36253,10.385922 9.36253,11.319441 0,1.13863 -1.3016,0.764306 -3.73778,-1.074931 -3.08615,-2.329961 -4.80455,-2.789464 -7.122,-1.904468 -0.98115,0.374678 -2.41697,1.334371 -3.19071,2.132623 l -1.40679,1.451368 2.44218,0.305125 c 1.34319,0.167811 4.44301,0.171084 6.88848,0.0081 l 4.44632,-0.297821 1.40344,1.416115 c 1.53383,1.54769 4.3213,7.735402 3.93646,8.738265 -0.34025,0.886608 -0.94705,0.373244 -1.22979,-1.040421 -0.33104,-1.655075 -2.21108,-3.416551 -4.22544,-3.958927 -0.92475,-0.249007 -1.84659,-0.393482 -2.04853,-0.321075 -0.20194,0.07241 0.34037,1.18767 1.20512,2.478371 1.08276,1.616066 2.17013,2.645069 3.49242,3.305006 1.05608,0.527072 2.25616,1.36435 2.66685,1.860637 1.03604,1.25195 1.01552,4.699045 -0.0335,5.648433 -1.07045,0.968707 -3.41562,0.873852 -5.10268,-0.206369 z m -74.217418,-4.016708 -0.909045,-2.795866 1.004441,-0.381871 c 0.552443,-0.210029 1.738418,-0.439926 2.635502,-0.510881 l 1.631065,-0.129011 -0.0092,2.418672 c -0.01016,2.683611 -0.921602,4.194807 -2.530176,4.194807 -0.748244,0 -1.078145,-0.50606 -1.822656,-2.795866 z m 99.299278,2.152942 c -0.36736,-0.442618 -0.4733,-1.684408 -0.34006,-3.985923 0.16507,-2.851276 0.42234,-3.752139 1.74911,-6.124529 3.74108,-6.689337 9.26049,-12.021113 15.42619,-14.901787 3.90421,-1.824095 7.09953,-1.89518 10.35484,-0.230381 3.70602,1.895277 7.36791,1.245774 9.26049,-1.642528 l 0.69404,-1.059176 -2.67669,0.0065 c -1.47217,0.0032 -3.82794,0.277437 -5.23504,0.608381 -3.70052,0.870321 -6.29743,0.163956 -4.82183,-1.311552 0.74033,-0.740294 14.26347,-3.022199 18.20382,-3.071723 l 2.71641,-0.03419 -0.27265,1.363157 c -0.62303,3.115038 -4.05021,7.38959 -13.95451,17.404816 -2.35365,2.380017 -7.41173,5.053823 -8.15478,4.310804 -0.9292,-0.92915 0.55562,-2.686675 3.31648,-3.925579 1.41997,-0.637199 3.10014,-1.774555 3.73371,-2.52746 1.1407,-1.355593 1.89119,-3.265948 1.45455,-3.702551 -0.1245,-0.124495 -1.53962,0.412478 -3.1448,1.193217 -2.83181,1.377381 -2.96465,1.514454 -4.4739,4.616817 -2.10768,4.332477 -6.8489,8.623187 -8.12195,7.350193 -0.51408,-0.514058 0.22766,-1.772701 3.27199,-5.551997 2.10974,-2.619106 2.61858,-4.813832 1.68361,-7.261902 -0.69177,-1.81129 -0.77179,-1.877118 -1.34857,-1.109586 -1.51109,2.010805 -3.44155,6.555617 -3.70712,8.727508 -0.401,3.279575 -2.33721,6.527687 -4.83567,8.112081 -1.08994,0.691189 -2.3076,1.256707 -2.70591,1.256707 -1.67889,0 -1.15499,-2.628992 0.89299,-4.481098 1.6482,-1.49057 2.64176,-4.037608 2.94319,-7.545047 0.34167,-3.975651 0.0526,-4.148089 -2.70051,-1.610518 -2.82029,2.599496 -3.35521,4.049074 -3.03681,8.229335 0.3055,4.010628 -0.0627,5.066627 -2.29059,6.567873 -1.6692,1.124826 -3.11804,1.248015 -3.88003,0.329912 z M 84.137851,51.6188 C 76.863599,48.866991 74.114314,47.513462 72.831442,46.052419 71.451309,44.480604 70.13488,40.615564 70.348101,38.761296 c 0.124759,-1.084961 0.406025,-1.251659 3.54906,-2.10337 1.877459,-0.508752 3.941598,-0.94076 4.586976,-0.960015 1.995611,-0.05951 1.385722,1.161884 -1.137281,2.277631 -1.270882,0.562018 -2.493693,1.375606 -2.717358,1.807985 -0.595458,1.151112 -1.042733,3.986213 -0.62888,3.986213 0.819523,0 3.232307,-2.495901 4.297198,-4.445216 0.630511,-1.154176 1.626417,-2.449441 2.213123,-2.878385 1.638759,-1.198071 5.52656,-1.71429 11.763597,-1.561929 5.640875,0.137719 5.686212,0.146911 7.036821,1.418712 1.518303,1.429677 2.534353,3.476896 2.534353,5.106395 0,1.559139 -0.68431,1.331258 -1.93059,-0.642876 -0.598352,-0.947807 -1.573325,-1.907822 -2.166606,-2.133381 -1.350133,-0.5133 -3.583321,-0.535039 -3.583321,-0.03483 0,0.953484 3.455478,3.860719 4.913973,4.134334 0.8511,0.15965 2.119204,0.771353 2.818014,1.359334 1.52695,1.284783 3.46387,4.942391 3.28048,6.194727 -0.27935,1.907549 -6.312323,2.137494 -8.841044,0.336976 -1.705744,-1.214537 -2.170633,-2.389451 -2.174234,-5.494894 -0.0031,-2.504544 -0.730811,-4.158974 -2.378251,-5.405441 -1.314363,-0.994445 -1.434526,-0.797236 -1.282647,2.105112 0.165007,3.153241 1.464726,5.806599 3.622008,7.394282 1.585818,1.167109 1.789808,2.658518 0.361723,2.644585 -0.528035,-0.0048 -1.770241,-0.377146 -2.760454,-0.82665 -1.793521,-0.814137 -1.798403,-0.814008 -1.280087,0.03532 0.437662,0.717202 0.388745,0.950146 -0.307969,1.46664 -1.114467,0.826199 -1.550422,0.759081 -5.998854,-0.923748 z m 4.254094,-3.001847 c -0.579633,-0.854097 -1.055146,-2.05412 -1.056691,-2.666727 -0.0018,-0.61259 -0.375201,-1.6787 -0.830341,-2.369115 -1.490365,-2.260779 -6.132172,-4.407046 -5.359477,-2.478097 0.164507,0.410672 0.543845,1.669862 0.84297,2.798188 0.690547,2.604785 2.462943,4.467454 4.814324,5.059516 1.006463,0.253408 1.934002,0.629135 2.061208,0.834955 0.127194,0.205804 0.31016,0.374195 0.406581,0.374195 0.09642,0 -0.298938,-0.698817 -0.878574,-1.552915 z M 239.27995,44.232178 c -1.80274,-1.683925 -2.50213,-3.541272 -3.01322,-8.002018 -0.2374,-2.072021 -0.43322,-3.911323 -0.43514,-4.087325 -0.006,-0.6496 1.62371,-0.29208 2.76594,0.606365 1.11301,0.875465 3.1911,4.637764 3.20013,5.793762 0.006,0.795818 -1.03406,0.647262 -2.81168,-0.401512 l -1.58455,-0.934858 0.30887,1.254868 c 0.16986,0.690174 0.94524,1.926868 1.72305,2.748229 3.20478,3.384202 3.07032,6.033754 -0.15337,3.022489 z m -81.79609,-3.096283 c -0.67466,-1.091541 -0.95216,-4.050138 -0.53095,-5.660559 0.24183,-0.924505 1.07471,-2.315931 1.85086,-3.092042 1.13995,-1.139904 1.72719,-1.401537 3.0553,-1.361205 1.59028,0.04822 6.97781,-1.959121 6.97781,-2.599948 0,-0.463212 -2.04857,-1.292733 -3.19251,-1.292733 -1.75374,0 -3.17787,0.776611 -5.56655,3.035632 -2.59668,2.455714 -3.61608,2.535974 -3.61351,0.284484 0.003,-2.785755 2.63965,-5.453497 5.38955,-5.453497 2.86391,0 6.94808,-3.345598 7.68931,-6.298824 0.43498,-1.732998 -0.36544,-1.808904 -3.53615,-0.335363 -2.45543,1.141114 -3.37161,1.856573 -4.74341,3.704229 -0.93511,1.259466 -2.10984,2.655714 -2.6105,3.102751 l -0.9103,0.812814 v -1.494392 c 0,-1.075351 0.66726,-2.559489 2.37968,-5.292898 3.72908,-5.952445 3.59977,-5.859106 7.66854,-5.534919 3.13105,0.249458 3.56356,0.18663 4.89603,-0.711283 1.52204,-1.025649 2.94185,-3.0630949 2.46607,-3.5388532 -0.55904,-0.5590184 -5.02903,0.7406812 -6.6932,1.9461552 -2.43051,1.760573 -2.61567,0.839664 -0.40682,-2.0233841 2.771,-3.5916993 3.72863,-4.0571207 7.67047,-3.7280634 2.235,0.1865814 3.56702,0.1077238 4.23718,-0.2509576 0.9415,-0.5038503 0.94806,-0.5445369 0.17891,-1.1069257 -0.43916,-0.3211232 -1.62585,-0.583853 -2.63707,-0.583853 -1.9848,0 -2.26357,-0.3503923 -1.09185,-1.372397 1.25914,-1.0982821 2.66132,-1.67358807 3.46066,-1.41988902 0.78818,0.25013512 7.75664,10.61728582 8.56362,12.74026582 0.62078,1.633175 0.57551,2.723523 -0.22502,5.419084 -0.70646,2.378791 -3.18118,5.413506 -4.00125,4.906688 -0.65186,-0.402835 -0.52926,-3.732822 0.25189,-6.842458 0.85555,-3.405811 0.54056,-5.308925 -1.16015,-7.009573 -1.0879,-1.0878482 -3.67998,-2.2870003 -4.14647,-1.9182562 -0.35047,0.2770177 1.85168,6.6231712 3.00172,8.6503602 1.14062,2.01058 1.25659,2.524251 1.00242,4.440153 -0.45896,3.459642 -2.82751,7.153179 -4.5871,7.153179 -1.02824,0 -1.00457,-1.328356 0.0798,-4.480081 1.34627,-3.912824 1.1063,-5.921839 -0.98109,-8.2135 -1.55578,-1.708018 -2.00577,-1.256885 -2.00577,2.010918 0,2.010741 0.28841,3.700003 0.89242,5.226763 1.07811,2.725217 0.88922,5.080399 -0.52855,6.589451 -1.06019,1.128486 -17.26225,12.093391 -17.86952,12.093391 -0.20086,0 -0.5044,-0.225204 -0.67453,-0.500464 z M 69.843554,34.288133 c 0,-0.339007 0.144015,-0.757743 0.320021,-0.930504 0.176012,-0.172777 0.518769,-1.106716 0.761678,-2.075439 l 0.441655,-1.761332 3.10563,-0.123688 c 3.03965,-0.121109 3.099579,-0.10337 2.820807,0.830988 -0.726752,2.43583 -2.493916,3.759075 -5.849684,4.380195 -1.247272,0.230848 -1.600107,0.160296 -1.600107,-0.320236 z m 10.475752,-4.318947 c -0.598648,-0.784835 -1.088453,-1.614179 -1.088453,-1.842979 0,-0.228816 0.768052,-1.445385 1.706783,-2.703511 0.938729,-1.258126 1.706781,-2.438797 1.706781,-2.623719 0,-0.451279 -1.313731,0.03903 -2.242766,0.837038 -1.00184,0.860548 -1.283044,0.472162 -0.948651,-1.310216 l 0.277173,-1.477396 3.05723,0.19471 c 1.681479,0.107078 3.633269,0.334185 4.337316,0.50464 l 1.280086,0.309915 -0.155546,3.169208 c -0.244283,4.977094 -1.318599,6.369278 -4.915033,6.369278 -1.683163,0 -2.063929,-0.180211 -3.014918,-1.426968 z M 208.09288,25.407602 c -0.46344,-0.605768 -1.51596,-0.957306 -3.81464,-1.274059 -1.74605,-0.240604 -3.25788,-0.520702 -3.35961,-0.622443 -0.46425,-0.464228 0.45139,-1.537645 1.9744,-2.314594 1.02935,-0.525105 1.93662,-1.415599 2.36762,-2.323801 0.73078,-1.539933 0.96694,-5.39691 0.33046,-5.39691 -0.20257,0 -1.2354,0.926956 -2.29519,2.059894 -1.34052,1.433032 -2.13605,2.779385 -2.61426,4.424268 -0.37805,1.300409 -0.96019,2.590788 -1.29365,2.867515 -1.11616,0.926297 -3.56089,1.057694 -4.78287,0.257071 -1.05665,-0.69232 -1.11572,-0.898898 -0.90899,-3.17877 0.38457,-4.24088 2.67055,-7.439453 6.13369,-8.58234 1.51575,-0.500222 6.31773,-0.348731 9.5713,0.301965 1.09192,0.218366 1.27645,0.419461 1.06796,1.163852 -0.13854,0.494932 -0.35009,3.395926 -0.46995,6.446652 -0.28316,7.207686 -0.52203,7.981056 -1.90627,6.1717 z M 80.2451,19.25298 c -0.359162,-0.935923 1.659187,-5.001139 3.488039,-7.025361 1.952853,-2.161474 4.397983,-3.6409815 7.152871,-4.3281073 2.610564,-0.6511157 3.145769,-0.2318963 2.438756,1.9102578 -0.474465,1.4375795 -1.293051,2.1084495 -1.293051,1.0597245 0,-0.666533 -1.866061,-0.133204 -3.795399,1.084623 -2.435177,1.537175 -5.664071,5.315553 -5.360327,6.27252 0.186427,0.587352 -0.04122,0.906911 -0.870745,1.222277 -1.441219,0.547924 -1.476178,0.544037 -1.760144,-0.195934 z m 3.86912,-0.695318 c -0.631086,-1.02107 6.832661,-7.245663 7.898364,-6.587048 0.520627,0.321736 -0.488059,2.975174 -1.597249,4.201677 -1.476482,1.632643 -5.763329,3.255482 -6.301115,2.385371 z m 66.28237,-7.535259 c -1.12162,-1.2857825 -1.6144,-2.5556001 -1.6144,-4.1600708 0,-1.7816504 0.48524,-2.8455351 2.19606,-4.8149441 0.9076,-1.0447912 1.21751,-1.84125332 1.21751,-3.128955 0,-2.07244 -0.49634,-2.0314147 -2.29407,0.18962923 -0.96506,1.19231459 -1.35229,2.21354517 -1.58381,4.17689067 -0.385,3.2650449 -0.98203,3.9756667 -2.1094,2.5106885 -1.03344,-1.3429342 -1.04866,-3.556431 -0.0397,-5.76012304 1.04161,-2.27472836 4.80392,-5.76010696 6.2178,-5.76010696 1.27343,0 3.32306,2.5421187 5.41484,6.71594539 1.05008,2.09524261 1.2803,2.99576781 1.08055,4.22667261 -0.23088,1.4225982 -2.10347,3.9910189 -2.90981,3.9910189 -0.18194,0 -0.29129,-1.3064082 -0.243,-2.9031221 0.0674,-2.2296715 -0.0984,-3.1871065 -0.71443,-4.127383 -0.7633,-1.1648999 -0.83043,-1.18568667 -1.38395,-0.428734 -0.86891,1.1882508 -0.72531,3.9420433 0.27166,5.2094259 1.02454,1.302425 1.0871,2.5796284 0.18914,3.8615728 -0.80983,1.15616 -2.76916,1.263061 -3.6951,0.201595 z m 51.8104,-2.4465217 C 198.24252,7.961211 196.9988,7.1729087 196.9988,5.274778 c 0,-1.4914253 0.68367,-2.8925433 1.41142,-2.8925433 0.2904,0 0.90149,0.6934957 1.35798,1.5411104 1.24474,2.3112384 3.3788,3.5789918 6.02466,3.5789918 1.31616,0 2.38588,0.2293483 2.67077,0.5726129 1.05271,1.2683662 -0.50337,1.3929581 -6.25664,0.5009315 z M 186.89874,3.8326508 c -2.07214,-2.2530224 -3.76755,-4.28830738 -3.76755,-4.52288063 0,-0.23458937 0.94407,-0.78485117 2.09789,-1.22282557 1.15385,-0.4379582 2.28734,-0.9857366 2.51888,-1.217262 1.5631,-1.5630261 6.41484,6.9934308 5.66331,9.9876988 -0.20993,0.8363586 -0.54079,1.0716415 -1.50698,1.0716415 -1.01864,0 -1.90562,-0.7259096 -5.00555,-4.0963721 z m 16.71385,1.5958109 c -0.70406,-0.434862 -1.60116,-1.1541598 -1.99356,-1.5984395 -0.92639,-1.0488227 -1.46978,-3.1544829 -0.81405,-3.1544829 1.02599,0 5.57218,2.5994154 6.02461,3.4447725 1.07851,2.015111 -0.82155,2.7877385 -3.217,1.3081499 z m -6.40043,-3.8995666 c -0.14498,-0.2346862 -0.76215,-0.426686 -1.37135,-0.426686 -0.74267,0 -1.65904,-0.57964394 -2.78118,-1.75918648 -1.98271,-2.08416382 -1.69634,-2.74168172 0.99601,-2.28683922 2.19793,0.3713082 4.22324,2.19361304 4.22324,3.79987378 0,1.10495842 -0.57535,1.46786482 -1.06672,0.67283792 z m -63.15094,-1.53543405 c -1.87747,-0.78759267 -3.85968,-1.43633785 -4.40492,-1.44164335 -0.61469,-0.00645 -0.93893,-0.2294935 -0.85339,-0.5882393 0.21331,-0.8946069 5.7375,-5.3956525 6.61357,-5.3886536 0.42802,0.00323 1.64227,0.3090606 2.69834,0.6792239 3.00557,1.053467 8.10721,-0.074665 8.10721,-1.7927615 0,-0.8725138 1.68103,-0.6284906 2.28259,0.3313311 0.3749,0.5982053 -0.32672,1.4632365 -4.22339,5.2069746 -3.4858,3.34899843 -4.94398,4.4814844 -5.73972,4.457682 -0.5867,-0.017578 -2.60283,-0.67632117 -4.48029,-1.46391385 z M 164.012,1.0542979 c -0.4242,-0.24676478 -2.61521,-2.2481039 -4.86892,-4.4474257 -3.50796,-3.4233245 -4.01885,-4.0937112 -3.5501,-4.6584867 0.76407,-0.9205863 1.29405,-0.8398096 4.06996,0.6203145 2.85121,1.4997626 4.78177,1.6085345 7.40709,0.4173166 1.02303,-0.4641958 2.1978,-0.8439864 2.61059,-0.8439864 0.41279,0 1.98432,0.9524035 3.49225,2.1164648 2.032,1.5686058 2.98541,2.0527337 3.68317,1.8702806 1.18672,-0.3103185 1.19087,-0.8928974 0.0145,-2.1441859 -1.40999,-1.5007947 -0.58102,-1.7184515 2.33999,-0.6144123 3.37435,1.2753812 4.55995,1.5372724 4.55995,1.0072169 0,-0.2332993 -0.28802,-0.6631944 -0.64005,-0.9553385 -0.6119,-0.5078013 -0.89675,-1.7066954 -0.4055,-1.7066954 0.69036,0 2.79179,1.408907 3.56223,2.3883382 0.8468,1.0764632 0.85252,2.1650534 0.008,1.6435447 -0.38665,-0.2389596 -8.20984,1.9092096 -16.50472,4.53202428 -4.36798,1.38113752 -4.66858,1.42145322 -5.77986,0.77503032 z m -2.42893,-9.5048288 c -2.40101,-1.1407266 -2.47639,-2.0250931 -0.21336,-2.5032381 2.17948,-0.460487 4.16241,-0.09611 5.09717,0.936809 0.6969,0.7700314 0.69053,0.834327 -0.12611,1.2713338 -2.20251,1.1786878 -2.81767,1.2168427 -4.75776,0.2950953 z m -22.09987,0.06386 c -1.76914,-0.5773379 -1.64242,-1.4135997 0.39278,-2.5919161 1.52836,-0.884883 1.5699,-0.886173 3.30689,-0.102886 0.96749,0.436249 1.75907,0.933955 1.75907,1.1059901 0,0.4689691 -1.90552,1.6250801 -3.0491,1.8499131 -0.55248,0.1086913 -1.63681,-0.00968 -2.40964,-0.2610366 z m 35.86081,0.00806 c -1.2543,-0.6048978 -1.21619,-1.1054099 0.10951,-1.4381117 1.32658,-0.3329274 4.05081,0.1436853 4.05081,0.708735 0,0.4399579 -1.83255,1.2704949 -2.69463,1.2212613 -0.27807,-0.016126 -0.93762,-0.2372341 -1.46566,-0.4918846 z m -24.82937,-1.3719939 c -1.33738,-1.4235172 -0.74876,-2.0895822 1.8466,-2.0895822 3.03539,0 5.88093,2.5354907 2.92807,2.6090105 -0.64538,0.016126 -1.75005,0.15449 -2.45482,0.3075448 -1.03595,0.2250104 -1.48033,0.066602 -2.31985,-0.8269731 z M 152.19576,198.121 c 2.22949,-2.08426 4.19143,-4.16126 4.35989,-4.61555 0.42581,-1.14838 1.13862,-1.04628 4.65997,0.66737 1.68778,0.82134 3.22896,1.49336 3.42484,1.49336 0.8272,0 0.23374,-0.71638 -1.50161,-1.81262 -1.02094,-0.64494 -2.33381,-1.60495 -2.91748,-2.13338 -0.58369,-0.52842 -1.71616,-1.32447 -2.51662,-1.76899 -0.80046,-0.44452 -1.85859,-1.17093 -2.3514,-1.61424 -0.72343,-0.65076 -0.98484,-0.69901 -1.3571,-0.25048 -0.34974,0.42138 -0.0464,0.96573 1.25604,2.25425 l 1.71712,1.69873 -3.98694,3.71686 c -4.97704,4.63992 -5.79247,5.02637 -8.42716,3.99374 -2.16306,-0.84778 -5.57642,-1.40854 -5.0255,-0.8256 0.72293,0.76493 7.35971,3.44675 7.9723,3.22147 0.35204,-0.12949 2.46417,-1.94067 4.69365,-4.02492 z m 10.5742,2.02527 c 2.17325,-1.05603 4.11782,-1.92004 4.32125,-1.92004 0.67364,0 13.46928,-10.75091 14.02681,-11.78536 0.30085,-0.55818 0.88954,-1.0149 1.3082,-1.0149 1.59849,0 3.89867,6.13687 3.91173,10.43653 0.01,3.31192 0.28051,3.43301 3.39276,1.51916 1.49779,-0.92107 3.09318,-2.04456 3.54528,-2.49664 1.3913,-1.39122 0.0956,-1.42836 -1.64247,-0.0471 -2.76239,2.19518 -3.09434,1.8825 -5.51545,-5.19559 -1.77488,-5.18883 -2.36763,-6.43319 -3.52654,-7.40338 -0.81586,-0.68299 -1.6682,-1.06062 -2.05712,-0.91139 -0.57388,0.2202 -0.5395,0.42972 0.25315,1.54282 0.50444,0.70839 0.85411,1.44229 0.77702,1.63085 -0.0771,0.18857 -1.86827,1.93063 -3.98042,3.87123 -3.75348,3.44868 -10.92417,8.57373 -11.99586,8.57373 -0.29619,0 -1.94259,0.76532 -3.65864,1.7007 -3.44534,1.87797 -4.23661,2.01525 -6.07892,1.05458 -1.28117,-0.66805 -2.37489,-0.56763 -2.37489,0.21806 0,0.24204 0.20973,0.44007 0.46607,0.44007 0.25634,0 0.95427,0.38401 1.55097,0.85335 1.59596,1.25531 2.88828,1.06589 7.27707,-1.06669 z m 18.70963,0.12402 c 0.34238,-0.55394 0.29924,-3.1202 -0.1087,-6.46478 l -0.25293,-2.07397 -2.51363,2.48728 c -1.3825,1.36802 -2.51363,2.6373 -2.51363,2.82066 0,0.6315 0.91395,0.33059 2.37093,-0.78065 1.82828,-1.39442 2.74941,-1.10737 2.74941,0.8568 0,2.94729 -2.37432,3.54228 -7.86727,1.97152 -3.09349,-0.88463 -3.80733,-0.83191 -2.77076,0.20461 1.20805,1.20799 10.26264,2.02035 10.90655,0.97853 z m -74.08684,-7.54171 c 0,-0.20765 -1.10407,-0.51198 -2.4535,-0.67632 -2.80795,-0.342 -5.531609,-1.43054 -6.602542,-2.63883 -0.404515,-0.45639 -1.016221,-1.62547 -1.359349,-2.59795 l -0.623866,-1.76814 1.572696,-0.49951 c 4.791171,-1.52176 8.952791,-6.21237 9.709381,-10.94357 0.39853,-2.49219 -0.35435,-2.92467 -3.63038,-2.08544 -6.562634,1.6812 -9.388587,4.96431 -9.399762,10.92038 -0.0085,4.60248 2.072169,8.16219 5.746852,9.83134 1.77858,0.80788 7.04047,1.15021 7.04047,0.45804 z M 96.084418,183.2897 c -0.414679,-1.30648 0.55729,-5.26475 1.659675,-6.75887 1.705809,-2.312 3.198337,-3.21784 5.342567,-3.24256 1.89465,-0.0218 1.9636,0.0221 2.09063,1.33271 0.25699,2.65134 -2.23251,5.99929 -5.785078,7.77996 -0.9974,0.49993 -1.813455,1.09705 -1.813455,1.32696 0,0.78066 -1.221126,0.42258 -1.494339,-0.4382 z m 107.846452,9.0095 c 1.68556,-0.72248 5.01541,-3.9204 5.01541,-4.81669 0,-0.75252 -0.92437,-0.27892 -2.46765,1.2643 -2.31162,2.31152 -4.50995,3.25995 -7.55969,3.26152 -4.77391,0.003 -8.9478,-3.27885 -8.64436,-6.79574 0.0961,-1.11326 0.27721,-1.28003 1.39053,-1.28003 1.13602,0 1.41392,0.27612 2.46928,2.45339 0.65405,1.34936 1.37411,2.45338 1.60011,2.45338 0.71683,0 0.44053,-2.2929 -0.4529,-3.75822 -0.77289,-1.26764 -3.63096,-3.03352 -4.95135,-3.05921 -0.78355,-0.0145 -1.32301,2.99417 -0.87137,4.86094 0.52661,2.1767 3.3551,5.01704 5.6198,5.64337 2.80935,0.77696 6.74539,0.67603 8.85219,-0.22701 z m 11.30653,-8.83172 c 1.86102,-1.09057 4.3272,-4.20627 3.77025,-4.76321 -0.1673,-0.16729 -0.98418,0.51441 -1.81529,1.5149 -0.83111,1.00051 -2.05688,2.10131 -2.72393,2.44624 -1.3161,0.68054 -4.90374,0.85585 -5.27344,0.25769 -0.12563,-0.2032 -0.69859,-0.27956 -1.27333,-0.16971 -3.65681,0.69901 -8.78938,-4.08394 -8.78938,-8.19068 0,-1.49789 0.0161,-1.51036 1.85611,-1.51036 3.34294,0 6.73746,3.31467 7.35606,7.18302 0.16642,1.04059 0.49192,1.74359 0.76567,1.65357 1.36701,-0.44952 0.20953,-4.34467 -2.10481,-7.08311 -1.60816,-1.90285 -5.81939,-3.88608 -8.25274,-3.88652 l -1.87316,-3.4e-4 0.2366,2.29228 c 0.54806,5.30999 4.77527,9.9881 10.31139,11.41128 2.16354,0.55618 5.8102,0.0168 7.81,-1.15505 z m -122.182711,0.74923 c 0.120969,-0.19573 -0.845045,-0.79725 -2.146705,-1.33673 -1.660609,-0.68825 -2.737077,-1.49221 -3.608324,-2.69488 -1.781752,-2.45952 -1.637896,-3.29606 0.786356,-4.57269 2.310095,-1.21654 4.057447,-4.02216 3.853159,-6.1868 -0.103745,-1.09922 -0.314897,-1.29878 -1.494791,-1.41278 -3.109531,-0.30043 -5.852512,2.26944 -6.344556,5.94416 -0.434124,3.24216 2.213452,8.12127 5.287943,9.74493 1.666028,0.87986 3.29955,1.10917 3.666918,0.51479 z m -7.423405,-10.3304 c 0,-2.61114 1.307554,-4.24736 3.394171,-4.24736 1.143305,0 1.299479,0.14578 1.299479,1.21244 0,0.70143 -0.404634,1.59857 -0.960064,2.12861 -0.528035,0.50389 -1.462115,1.39832 -2.075733,1.98763 -0.613617,0.5893 -1.237659,1.07144 -1.38676,1.07144 -0.149095,0 -0.271093,-0.96873 -0.271093,-2.15276 z m 50.350056,7.72486 c 0,-0.22076 -1.18539,-1.87483 -2.63421,-3.67572 l -2.63421,-3.27437 0.92159,-0.6977 c 1.34296,-1.0167 2.0561,-4.93075 1.38708,-7.61294 -0.70214,-2.81498 -2.42859,-5.67167 -3.42769,-5.67167 -0.98739,0 -2.35541,1.67413 -3.02444,3.70121 -0.96846,2.93436 -0.24125,6.18979 2.3662,10.5924 0.70173,1.18487 6.27257,7.04015 6.69814,7.04015 0.19115,0 0.34754,-0.18061 0.34754,-0.40136 z m -6.5041,-8.44929 c -1.45682,-1.52698 -2.0298,-3.10471 -2.0298,-5.5891 0,-2.10571 0.89194,-3.90724 1.93448,-3.90724 1.25027,0 1.89441,1.88184 2.00802,5.86634 0.13094,4.59178 -0.26971,5.35213 -1.9127,3.63 z m 47.46688,5.09218 c 0,-0.18983 -0.28191,-0.71783 -0.62647,-1.17337 -0.91644,-1.21157 -0.79163,-2.507 0.41244,-4.28121 2.26345,-3.33523 2.41817,-6.84225 0.45001,-10.2005 -1.36137,-2.3229 -2.34543,-2.45414 -3.82797,-0.5105 -2.6321,3.45066 -3.00957,6.6986 -1.24945,10.75057 0.61162,1.40804 1.1351,2.97374 1.16328,3.47933 0.0282,0.50561 0.1603,0.85189 0.29358,0.76952 0.13321,-0.0824 0.80532,0.20995 1.49343,0.64958 1.39684,0.89243 1.89115,1.02744 1.89115,0.51658 z m -3.67032,-5.2719 c -0.16892,-0.2733 -0.38434,-1.85733 -0.4787,-3.52007 -0.14305,-2.52059 -0.0234,-3.25838 0.71954,-4.4381 1.32735,-2.1076 2.59288,-1.75369 3.35067,0.93701 0.55793,1.98102 0.53032,2.21413 -0.56878,4.80011 -0.81918,1.92734 -1.38216,2.71796 -1.93541,2.71796 -0.42911,0 -0.91841,-0.22361 -1.08732,-0.49691 z m -22.02057,1.54267 c 3.06284,-2.77158 5.06153,-6.43636 5.45703,-10.00594 0.30464,-2.74963 -0.74396,-6.04367 -2.84884,-8.94924 -1.21463,-1.67667 -1.35036,-1.74835 -2.22628,-1.17572 -0.51305,0.33538 -1.5646,1.83869 -2.3368,3.34067 -1.08845,2.11713 -1.4166,3.30624 -1.4601,5.29093 -0.064,2.91819 1.00061,6.573 2.24167,7.69611 1.04126,0.94227 1.08212,0.39985 0.1911,-2.53716 -0.93074,-3.06795 -0.80938,-5.76247 0.35906,-7.97191 1.41963,-2.68446 2.32423,-2.51427 3.61214,0.67958 0.80043,1.985 0.98212,3.05244 0.8088,4.75209 -0.31085,3.04867 -1.19827,4.58766 -4.70228,8.15484 -3.59089,3.65563 -2.92432,4.19047 0.9045,0.72575 z m 72.67095,0.96443 c 1.46379,-0.98591 3.81025,-4.57024 2.9919,-4.57024 -0.49055,0 -2.18207,1.68917 -2.18207,2.17904 0,0.17127 -0.64672,0.71109 -1.43712,1.19957 -1.42796,0.88246 -3.68323,1.21028 -3.68323,0.53536 0,-0.19402 -0.57377,-0.26857 -1.27507,-0.16565 -1.02386,0.1503 -1.57026,-0.10805 -2.77352,-1.31125 -0.96332,-0.96327 -1.49844,-1.90422 -1.49844,-2.63478 0,-1.02463 0.13611,-1.12323 1.38392,-1.00268 1.12442,0.10869 1.64147,0.5282 2.75735,2.23747 1.13552,1.73939 1.42476,1.96991 1.66995,1.33099 0.41736,-1.08754 -0.98589,-3.4971 -2.62732,-4.51153 -1.6711,-1.03274 -4.38058,-1.13044 -4.74868,-0.17123 -0.77567,2.02127 2.62389,7.08966 5.06966,7.55834 2.69576,0.51659 4.93893,0.2788 6.35267,-0.67341 z m 3.76671,-14.01011 c 0.0494,-5.35482 1.59332,-8.43274 5.71556,-11.39412 1.48569,-1.06732 1.9518,-1.60417 1.47284,-1.69639 -1.77703,-0.34222 -5.66654,3.02632 -7.24448,6.27411 -0.72996,1.50246 -0.99329,2.93591 -1.12304,6.11336 -0.18067,4.42465 0.14628,6.39482 0.79821,4.80947 0.19301,-0.46934 0.36441,-2.31723 0.38091,-4.10643 z M 234.1213,26.685805 c 0,-0.751211 -1.57157,-3.569961 -2.40809,-4.319142 -1.39185,-1.246515 -5.71244,-2.930247 -6.81145,-2.654422 -2.00672,0.503624 -1.00672,1.361189 2.66647,2.286629 1.6158,0.407093 2.81985,1.449305 5.31124,4.597273 0.51227,0.647278 1.24183,0.699963 1.24183,0.08966 z"
       id="path826"
       inkscape:connector-curvature="0" />
    <path
       style="opacity:0.203;fill:#f9f9f9;fill-opacity:1;fill-rule:evenodd;stroke:#000000;stroke-width:4.61102343;stroke-miterlimit:4;stroke-dasharray:none;stroke-opacity:1"
       d="m 460.73778,797.24007 c -10.09871,-10.92697 -27.48869,-45.20534 -36.59351,-72.1316 -7.90449,-23.37637 -9.40849,-25.79746 -16.54203,-26.62917 -10.33283,-1.20472 -31.87851,9.413 -38.78603,19.11371 -8.19802,11.51306 -9.91661,25.72806 -4.87848,40.35134 2.39806,6.9604 3.79703,13.21835 3.10883,13.90655 -2.97519,2.9752 -12.66051,-25.02789 -12.70795,-36.74243 -0.0965,-23.8206 13.24724,-37.6496 54.73628,-56.72692 25.84209,-11.8826 33.60092,-19.43554 34.61218,-33.69371 0.5126,-7.22694 -0.30658,-8.09063 -7.2272,-7.62 -11.76718,0.80023 -64.76437,27.47414 -79.01203,39.7674 -24.29665,20.9638 -31.69441,51.35029 -20.43981,83.957 2.97739,8.62606 5.01446,16.08271 4.52682,16.57037 -0.48763,0.48763 -5.32303,-7.21291 -10.74532,-17.11234 -5.42229,-9.89943 -12.96562,-19.58714 -16.76296,-21.52826 -3.87668,-1.98168 -18.80661,-3.67266 -34.0471,-3.85623 -14.92858,-0.17971 -30.1708,-1.17703 -33.87161,-2.21603 -3.70081,-1.039 5.94205,-1.88971 21.42857,-1.89042 31.55213,-10e-4 44.94757,-5.01118 51.90669,-19.41243 7.11653,-14.72697 -0.40486,-21.65226 -28.03508,-25.81317 -3.92857,-0.5916 2.23701,-1.25075 13.7013,-1.46475 18.03346,-0.33663 21.78981,-1.33474 27.85714,-7.40208 3.85714,-3.85715 7.01299,-9.16517 7.01299,-11.79566 0,-4.19189 -2.88157,-4.61589 -23.32742,-3.43229 -19.83716,1.14835 -24.10853,2.31503 -28.54805,7.7976 -4.62157,5.7074 -6.25579,6.08635 -14.24179,3.30243 -13.31862,-4.64291 -18.36769,-3.8832 -21.82419,3.28377 l -3.10038,6.42858 -0.19337,-6.42858 c -0.11012,-3.66068 -2.00002,-6.42857 -4.38942,-6.42857 -2.53854,0 -3.55242,-1.67723 -2.5667,-4.246 2.19109,-5.70988 -9.75894,-10.03971 -27.70897,-10.03971 -15.96089,0 -17.08419,2.21283 -8.37475,16.49763 3.13698,5.14511 5.70361,9.99368 5.70361,10.7746 0,0.78091 -7.2496,-5.71486 -16.11022,-14.43503 -8.86062,-8.72017 -15.32672,-16.63834 -14.36912,-17.59597 1.68059,-1.68057 36.98381,-4.55703 60.47934,-4.92777 6.28571,-0.0992 23.37695,1.65062 37.98052,3.88848 20.57623,3.15306 29.93805,3.35854 41.59738,0.91297 19.00566,-3.98648 66.92022,-26.67797 76.44548,-36.20323 6.38759,-6.3876 26.52487,-36.7376 44.46473,-67.01517 8.083,-13.64191 15.23343,-49.09117 15.19826,-75.34748 -0.0363,-27.19417 -7.45186,-43.06566 -32.42772,-69.40617 -10.43014,-11 -18.96591,-21.40789 -18.9684,-23.1286 -0.006,-4.64458 -9.18408,-12.09892 -19.18954,-15.58686 -4.84768,-1.68989 -9.3923,-5.28414 -10.09916,-7.98717 -2.88709,-11.04026 -60.97202,-26.41449 -66.43012,-17.58309 -3.19351,5.1672 -7.56706,2.98043 -5.71429,-2.85714 1.56695,-4.93703 0.52441,-5.70619 -7.66461,-5.65474 -5.21304,0.0327 -17.29458,1.69822 -26.84787,3.70106 -14.31419,3.00096 -17.99293,2.97427 -20.91304,-0.15171 -4.72577,-5.05896 -20.73401,-2.11316 -37.67286,6.93245 -14.21216,7.58951 -28.33019,19.47988 -28.33019,23.86 0,1.50782 -1.76588,2.74151 -3.92418,2.74151 -2.1583,0 -10.49591,4.82143 -18.52802,10.71429 -10.66289,7.82297 -14.639,12.64182 -14.73413,17.85714 -0.11172,6.12451 -0.53601,6.44694 -2.97612,2.26151 -1.66269,-2.85194 -4.89312,-4.25385 -7.77026,-3.37205 -3.16748,0.97077 -2.50004,-0.3458 1.87074,-3.69012 14.85267,-11.36457 23.20483,-20.74114 23.20483,-26.051 0,-3.79271 2.51371,-6.08691 7.85714,-7.171 4.32143,-0.87674 14.91235,-7.9308 23.53539,-15.67571 18.37207,-16.50114 18.14668,-17.30567 -9.96396,-35.56615 -15.62149,-10.14761 -18.53745,-11.03942 -32.85715,-10.04891 -8.64285,0.59784 -18.1752,2.19214 -21.18298,3.54289 -4.01169,1.80158 -4.89323,1.52477 -3.30874,-1.03898 1.18797,-1.92218 8.93575,-6.49146 17.21729,-10.15395 13.39466,-5.92375 24.41729,-15.96517 24.41729,-22.24369 0,-4.91053 -9.79774,-1.73032 -20.30313,6.5901 -7.28467,5.76957 -11.12544,7.42481 -11.12544,4.79468 0,-7.75092 9.03508,-30.43335 13.60036,-34.14348 4.032,-3.27675 4.31908,-3.02938 2.28145,1.96586 -4.05541,9.94184 -5.21338,18.57143 -2.49204,18.57143 1.44505,0 7.70208,-3.70366 13.90451,-8.23036 6.20243,-4.5267 15.44005,-9.12541 20.52805,-10.21937 8.46402,-1.81982 20.7491,-13.11574 20.7491,-19.07844 0,-1.35951 -5.65994,-2.47183 -12.57764,-2.47183 -11.54973,0 -12.83504,0.73837 -15.72717,9.03473 -5.19354,14.89819 -6.85989,6.87978 -2.0259,-9.74855 3.9712,-13.66045 11.63142,-25.00047 16.88789,-25.00047 1.00184,0 -0.76679,4.38688 -3.9303,9.74863 -6.82451,11.56668 -3.54242,15.36447 8.84415,10.23378 7.00548,-2.90176 8.02838,-4.62821 6.6943,-11.29861 -1.00298,-5.01489 0.55437,-11.91059 4.28943,-18.99293 4.76765,-9.04034 5.88773,-9.91743 5.99039,-4.69087 0.1458,7.42238 7.95809,8.82334 10.61356,1.9033 1.31737,-3.43303 2.27035,-3.6615 3.94827,-0.94657 3.7232,6.02427 23.26676,-3.14937 28.11617,-13.19758 2.24917,-4.66039 5.16658,-10.70599 6.48313,-13.43467 4.5134,-9.35449 2.81014,-16.44587 -4.03485,-16.79877 -5.80679,-0.29937 -5.87587,-0.46386 -0.71429,-1.70064 3.14286,-0.75306 9.81813,-5.2837 14.83393,-10.06808 9.1081,-8.68786 35.70761,-18.07765 37.54702,-13.25432 1.40447,3.6828 15.93742,3.03611 19.85715,-0.88362 5.51112,-5.51113 7.3004,-0.39426 2.33904,6.68906 -11.45054,16.34794 -2.54154,29.06163 30.65109,43.74099 21.26514,9.40445 25.97718,9.42311 23.67628,0.0938 -0.96891,-3.92858 -2.54985,-10.3334 -3.51321,-14.23294 -2.09362,-8.47467 0.72985,-21.48136 4.66314,-21.48136 1.61595,0 2.8027,10.45398 2.8027,24.68865 v 24.68864 l 26.73992,26.73993 c 14.70697,14.70696 28.7894,26.73993 31.29428,26.73993 7.30758,0 11.0496,-18.43119 6.4516,-31.777 -2.09957,-6.09408 -2.68208,-11.08015 -1.29445,-11.08015 4.01463,0 2.92645,-13.78916 -1.81115,-22.95066 -2.38374,-4.60965 -8.16945,-10.36453 -12.85714,-12.78863 -4.68768,-2.4241 -8.52306,-6.06246 -8.52306,-8.08525 0,-5.09711 -13.12591,-16.78905 -29.22644,-26.03352 l -13.51216,-7.75831 -8.43348,6.00517 c -4.63842,3.30284 -12.48741,11.12367 -17.44221,17.37961 -8.25997,10.42907 -17.09999,15.00006 -17.09999,8.84206 0,-5.95404 54.31868,-56.448165 62.56951,-58.164039 2.51535,-0.523096 4.39477,-3.151822 4.17652,-5.841614 -0.27426,-3.380088 1.74225,-4.890529 6.52908,-4.890529 3.80926,0 10.11755,-2.091219 14.01837,-4.647153 5.39026,-3.53183 10.55106,-4.188357 21.50315,-2.735512 8.97788,1.190961 18.05051,0.595452 24.06554,-1.579615 7.46237,-2.698421 11.1534,-2.72457 16.25351,-0.115145 6.27246,3.209239 6.17495,3.30543 -1.97282,1.946124 -10.39389,-1.73403 -17.17589,2.058466 -14.79172,8.271516 1.06309,2.770402 5.0946,4.574071 10.2238,4.574071 5.88003,0 9.0078,1.698967 10.23269,5.558317 2.08105,6.556788 31.84117,34.441679 36.75783,34.441679 1.86488,0 18.68351,-4.5 37.37471,-10 36.93583,-10.868591 51.94371,-13.040776 38.05983,-5.50864 -4.32143,2.34442 -7.85714,5.39024 -7.85714,6.76849 0,3.88671 29.78908,34.45444 33.5768,34.45444 1.85074,0 4.57357,-2.25825 6.05074,-5.01833 2.52074,-4.71007 1.42103,-9.67 -6.80592,-30.69596 -2.09485,-5.3539 -1.855,-5.32292 3.80318,0.49108 3.32145,3.41294 8.56371,7.00666 11.64942,7.98602 4.56758,1.4497 5.321,3.56403 4.05343,11.37522 -1.97183,12.15079 2.2742,14.66629 30.80446,18.24966 11.63449,1.46129 25.6536,4.74294 31.1536,7.29256 8.64257,4.00642 8.93346,4.43232 2.14286,3.13756 -5.91515,-1.12783 -7.85715,-0.37106 -7.85715,3.06182 0,4.77393 11.65403,17.69766 21.42858,23.7632 3.7432,2.32283 4.53182,4.04718 2.28622,4.99902 -14.93094,6.32876 -25.15277,26.78672 -13.38397,26.78672 2.53909,0 10.67397,2.15142 18.07752,4.78092 16.69808,5.93063 23.02023,3.90389 23.02023,-7.37977 0,-4.67087 1.28571,-9.28709 2.85714,-10.25829 1.66174,-1.02702 2.85714,1.81309 2.85714,6.78824 0,12.47638 5.01337,23.76534 13.75189,30.96615 4.22217,3.4792 6.19397,6.37206 4.38177,6.42857 -5.02146,0.1566 -61.91437,-20.02445 -66.05986,-23.43273 -2.00226,-1.6462 -4.37086,-2.26269 -5.26357,-1.36997 -3.51749,3.51748 -9.10166,23.60398 -7.13063,25.64916 1.15143,1.19475 -3.47608,8.15311 -10.28337,15.46301 -17.9802,19.30773 -19.99943,33.16885 -5.36686,36.84139 4.14229,1.03965 10.77995,-0.0304 15.83663,-2.55302 7.83214,-3.90718 8.70543,-3.89714 8.70543,0.10009 0,3.64693 2.17551,4.07205 12.14286,2.37285 6.67857,-1.13855 17.60137,-1.89958 24.27285,-1.69118 16.16363,0.50489 32.9488,-4.26044 39.15249,-11.11544 4.07109,-4.49849 4.98014,-10.33948 4.70083,-30.20453 -0.38426,-27.33122 3.68571,-30.688 6.3154,-5.20873 1.74728,16.92949 8.97143,30.25397 17.2898,31.88992 6.40697,1.26004 5.91771,-5.7444 -1.01709,-14.56056 -7.21737,-9.1754 -7.21737,-11.51108 0,-9.22037 6.55509,2.0805 7.71352,-3.78291 2.62566,-13.28968 -1.69874,-3.17414 -2.35849,-6.50131 -1.46609,-7.39371 2.68,-2.67999 10.69455,19.37581 13.72166,37.76156 1.89103,11.48551 1.87369,20.53285 -0.052,27.20754 l -2.8852,10 -0.30143,-8.57142 c -0.61023,-17.35226 -2.84183,-17.64437 -34.08317,-4.46146 -41.48931,17.50724 -42.635,20.45802 -15.87086,40.87563 14.67958,11.19863 26.88295,14.04686 26.88295,6.27435 0,-2.60029 1.3524,-3.61849 3.24917,-2.44623 1.80574,1.116 5.69317,-1.03035 8.75054,-4.83138 l 5.50126,-6.83948 -1.94563,7.14286 c -1.07009,3.92857 -3.72209,9.17265 -5.89337,11.65354 -5.16286,5.89903 -4.98677,11.30591 0.62937,19.32406 5.55649,7.93303 3.71809,10.60474 -4.33243,6.29623 -3.27746,-1.75406 -5.98066,-2.17963 -6.00714,-0.94578 -0.0257,1.23386 -2.68323,-1.87057 -5.90392,-6.89868 -7.77917,-12.14492 -30.74351,-27.27793 -39.0298,-25.71983 -3.52574,0.66297 -7.93208,-0.62809 -9.79191,-2.86903 -5.61871,-6.77016 -17.35814,-11.62707 -36.48751,-15.09589 -19.41326,-3.5203 -32.08818,-2.05645 -31.36395,3.62228 1.17909,9.24531 -0.20714,10.30711 -8.08905,6.19555 -12.9088,-6.73388 -35.02283,-5.05138 -62.02455,4.71899 -13.45637,4.86907 -27.22814,11.08941 -30.60394,13.82299 -7.11334,5.76002 -4.6588,12.72088 3.56523,10.11068 4.13183,-1.3114 5.03937,-0.64623 3.7396,2.74092 -1.14257,2.97751 -5.36106,4.47254 -12.61994,4.47254 -22.78886,0 -36.59523,21.58446 -32.59038,50.95086 2.8,20.5316 2.40066,23.38262 -6.66991,47.62057 -6.38291,17.05605 -7.49509,24.62617 -7.5558,51.42857 -0.0514,22.64537 1.19446,34.26177 4.45766,41.56654 4.74777,10.628 57.15628,59.08212 76.20868,70.45846 5.81286,3.47088 18.9154,8.46537 29.11677,11.09888 15.85598,4.09323 22.1198,4.31769 43.15755,1.54643 13.53523,-1.78294 44.07094,-3.24174 67.85714,-3.24174 h 43.2476 l 0.48029,-12.14286 0.48031,-12.14285 1.12074,10.71428 c 0.90935,8.6934 2.2738,10.71429 7.234,10.71429 4.75475,0 5.35132,0.76191 2.68466,3.42857 -1.88571,1.88571 -3.42857,5.9886 -3.42857,9.11751 0,5.17755 -0.32106,5.26232 -3.57143,0.94303 -3.30757,-4.39526 -4.26989,-4.40326 -13.02483,-0.108 -9.81191,4.8138 -25.05726,21.77163 -32.92091,36.61889 -2.49686,4.71428 -4.59123,6.7664 -4.65415,4.56028 -0.0629,-2.20614 4.45218,-12.17691 10.03352,-22.15734 l 10.14794,-18.14617 -7.87688,-2.9948 c -10.24355,-3.89457 -28.70986,-0.68537 -35.57832,6.18308 -2.97666,2.97666 -5.45117,8.9478 -5.49897,13.26923 -0.0809,7.32223 -0.30749,7.46812 -3.32726,2.14286 -4.93503,-8.7028 -8.42448,-9.93469 -16.42365,-5.79817 -9.84869,5.09297 -17.09963,13.47628 -20.19449,23.34831 -1.82514,5.82192 -2.0938,3.14743 -0.93649,-9.32223 1.08469,-11.6868 0.53526,-18.1586 -1.6566,-19.51325 -1.80377,-1.11477 -12.84954,-2.75066 -24.54617,-3.63526 -18.71925,-1.41574 -21.503,-0.99231 -23.24025,3.53491 -2.98649,7.78263 10.98128,18.52072 24.14254,18.56023 l 10.55497,0.0317 -9.28571,7.31825 c -19.34018,15.24238 -6.397,33.4474 28.23945,39.71989 l 21.04626,3.81134 -26.39266,0.25772 -26.39265,0.25771 -9.85043,19.56034 c -9.73283,19.3268 -24.01609,39.02592 -26.49746,36.54455 -0.7036,-0.7036 1.89871,-6.3136 5.78297,-12.46663 32.68194,-51.77154 15.26552,-95.26769 -50.779,-126.81646 -16.44403,-7.85514 -33.49206,-14.53208 -37.88451,-14.83766 -7.12483,-0.49565 -7.92389,0.32363 -7.40815,7.59523 1.01806,14.35386 8.71598,21.70735 36.03323,34.42106 40.75497,18.96774 53.47246,32.81203 53.32592,58.05066 -0.0634,10.92871 -10.10826,37.30171 -13.07666,34.33331 -0.88511,-0.88508 -0.3442,-3.97311 1.20203,-6.86226 2.99443,-5.59514 4.50208,-17.51451 3.7968,-30.0172 -0.8874,-15.73117 -27.09649,-36.64754 -45.9212,-36.64754 -7.69294,0 -8.89692,1.2492 -11.70312,12.14286 -7.45294,28.93237 -16.92045,51.32728 -28.85297,68.25006 -4.70903,6.6784 -4.82203,7.94368 -0.99308,11.12142 6.84163,5.67803 2.5942,6.59172 -5.62075,1.20909 -6.45522,-4.22963 -6.85697,-5.30363 -3.0306,-8.10154 5.78475,-4.22989 12.7576,-30.87763 12.79755,-48.9076 0.0566,-25.45755 -27.0594,-71.47049 -40.9152,-69.42915 -7.11792,1.04866 -29.00066,32.22215 -33.17809,47.2644 -7.56074,27.22529 -2.11206,57.92706 14.39437,81.1082 7.39695,10.38806 5.8188,13.47035 -2.36374,4.61672 z m -8.53357,-446.08812 c 1.2236,-1.75248 1.53083,-7.04348 0.68268,-11.75777 -0.84811,-4.71428 -1.99057,-13.21875 -2.53874,-18.89881 -0.5482,-5.68007 -3.65163,-15.32293 -6.89648,-21.42858 -3.24486,-6.10565 -6.61,-14.31546 -7.47809,-18.24404 -2.57049,-11.63285 -32.26909,-42.7896 -41.22234,-43.24623 -6.96808,-0.35539 -7.05779,-0.49822 -1.03568,-1.64887 8.19341,-1.56552 6.74878,-7.15132 -2.51935,-9.74129 -3.81207,-1.06527 -5.32389,-2.06502 -3.3596,-2.22166 8.0864,-0.64485 2.41702,-10.47738 -17.18933,-29.81189 -25.01704,-24.67018 -43.86948,-35.3246 -71.41458,-40.3598 -11.37499,-2.07934 -17.33795,-3.91971 -13.25101,-4.08972 16.0242,-0.66658 31.14063,-9.64142 31.14063,-18.48862 0,-5.0805 -10.59747,-10.39192 -20.73422,-10.39192 -11.36234,0 -24.98006,8.23606 -24.98006,15.10804 0,2.73263 11.09584,1.65556 21.42857,-2.08005 5.63291,-2.03648 5.63531,-2.00155 0.1682,2.45306 -3.05035,2.48542 -8.3572,4.51895 -11.79302,4.51895 -9.67394,0 -11.94127,4.96256 -18.23394,39.90908 -5.29385,29.39957 -5.43826,33.15935 -1.5042,39.16347 8.49606,12.96663 33.50582,6.68733 33.50582,-8.41245 0,-4.10612 1.68128,-8.11086 3.73618,-8.8994 2.05491,-0.78854 8.3068,-8.57871 13.89309,-17.31149 9.89538,-15.46897 15.94215,-19.97453 15.94215,-11.87878 0,2.19944 -4.5407,15.75636 -10.09044,30.12648 -5.54975,14.37012 -9.18482,27.59283 -8.07794,29.3838 1.10688,1.79097 2.11186,9.76976 2.2333,17.73066 0.28134,18.44374 9.70412,37.42911 18.41569,37.10463 3.34995,-0.12477 6.09082,1.50127 6.09082,3.61342 0,4.21122 16.99205,15.68181 21.18626,14.30193 1.43815,-0.47315 6.58101,3.35769 11.42857,8.51298 10.25534,10.90637 41.51232,30.18503 46.09103,28.42802 1.72303,-0.6612 4.69549,1.30008 6.60546,4.3584 6.45748,10.34011 23.777,12.78263 29.77057,4.19845 z m 88.36546,-7.32305 c 4.12957,-3.24831 9.48908,-4.93401 12.87342,-4.04898 3.88063,1.01481 9.12658,-1.40597 15.86169,-7.31948 5.82137,-5.11123 11.86751,-8.14347 14.34331,-7.19342 2.4672,0.94675 8.45158,-2.02042 14.12949,-7.00569 6.17626,-5.42284 10.85534,-7.64225 12.54649,-5.95112 10.63468,10.63468 86.79825,-64.90191 86.79825,-86.08372 0,-2.48804 -6.29874,-2.93223 -23.57143,-1.66224 -35.82511,2.63406 -56.95054,7.63737 -58.58154,13.87436 -0.94431,3.61106 -4.03077,5.24129 -9.92317,5.24129 -31.70631,0 -84.94751,55.54237 -85.0388,88.71428 -0.046,16.6954 8.10909,21.23043 20.56229,11.43472 z M 252.84309,312.24084 c 0.97476,-1.5772 4.76752,-2.11588 8.42835,-1.19707 3.66083,0.91881 7.48469,0.3298 8.49747,-1.30891 1.22862,-1.98794 4.24672,-2.06498 9.06913,-0.23151 10.01722,3.80854 19.11209,3.43324 25.2312,-1.04116 6.05979,-4.43103 4.57634,-11.68761 -4.83524,-23.65249 -3.83987,-4.8816 -5.90112,-10.99319 -5.38077,-15.95392 0.61651,-5.87748 -1.54796,-10.4325 -8.04428,-16.92882 l -8.88773,-8.88773 -30.61373,1.74761 c -16.83756,0.96119 -33.18517,1.86496 -36.32802,2.00837 -13.51458,0.6167 -33.08753,6.37517 -35.33807,10.39665 -3.55113,6.34553 1.98785,25.02874 9.51734,32.10232 8.43013,7.9197 49.35674,25.73464 59.22353,25.77941 4.22869,0.0191 8.48606,-1.25556 9.46082,-2.83275 z m 291.03449,-63.18255 c 18.2846,-12.75617 33.24474,-24.28725 33.24474,-25.62462 0,-1.33736 1.87983,-1.71022 4.17737,-0.82856 4.88426,1.87426 18.65863,-11.82994 18.72352,-18.62814 0.0369,-3.85472 0.45611,-3.93111 2.6394,-0.48079 2.19831,3.47412 3.3138,3.50597 7.28748,0.20808 11.68369,-9.69659 16.34903,-30.90036 9.63346,-43.78363 -9.05611,-17.37335 -29.46471,-44.81216 -33.33071,-44.81216 -4.70192,0 -14.8448,7.98758 -14.8448,11.69037 0,1.22831 4.17857,2.75185 9.28571,3.38564 7.02843,0.87222 5.94094,1.2635 -4.47354,1.6096 -7.5676,0.25148 -16.5676,1.90799 -20,3.68112 -7.56206,3.90644 -18.85343,16.85095 -18.99514,21.77613 -0.128,4.44547 -1.42835,4.61535 16.32582,-2.13266 15.43403,-5.86616 19.87963,-3.75205 8.64998,4.1135 -3.5634,2.49592 -12.25052,4.44773 -19.79592,4.44773 -15.1338,0 -18.67837,2.58849 -30.00083,21.90879 -7.84023,13.37834 -13.05683,31.38295 -12.69211,43.80549 0.11543,3.92857 0.14886,13.89604 0.0743,22.14992 -0.14685,16.29768 1.36858,20.70723 7.11706,20.70723 2.0512,0 18.68963,-10.43687 36.97423,-23.19304 z M 238.25084,229.40853 c 4.37573,-4.37574 7.18034,-32.53268 3.4833,-34.9706 -1.75079,-1.1545 -9.79569,-2.11879 -17.87756,-2.14285 -10.8249,-0.0322 -15.15344,1.15269 -16.43785,4.49979 -2.42895,6.32976 0.39642,9.82732 6.22366,7.70434 4.5312,-1.6508 4.55757,-1.36668 0.34309,3.69622 -8.09263,9.72174 -8.31831,11.82292 -2.11659,19.70712 5.05073,6.42096 7.60335,7.45022 14.87178,5.99653 4.82598,-0.96519 10.00556,-2.98594 11.51017,-4.49055 z m 465.06068,-45.72863 0.95366,-27.14286 -21.96683,-0.8313 c -20.61866,-0.78028 -22.4998,-0.34191 -30.65134,7.14286 -5.3336,4.89729 -9.66126,12.51341 -11.21583,19.73833 -3.54651,16.48254 -0.0891,21.40906 14.75786,21.02946 13.29214,-0.33984 36.18048,4.64977 40.36185,8.79879 5.04638,5.00733 6.80369,-1.49953 7.76063,-28.73528 z m -214.5728,-25.81481 c 3.03955,-1.62672 5.52646,-4.80066 5.52646,-7.05319 0,-2.43017 1.70846,-3.43992 4.20157,-2.48323 2.83017,1.08604 5.84863,-1.84161 9.24766,-8.96945 5.04266,-10.5746 5.04026,-10.59242 -3.55274,-26.39692 -4.72935,-8.69835 -11.46963,-17.721341 -14.97843,-20.051092 -6.02566,-4.000884 -7.09209,-3.523448 -19.22026,8.604732 -10.33717,10.33716 -12.84066,14.7954 -12.84066,22.86675 0,5.51435 1.92857,11.62667 4.28572,13.58292 2.35714,1.95626 4.33603,2.43511 4.39754,1.06413 0.0614,-1.37099 2.04571,1.96581 4.40937,7.41509 3.64834,8.41118 8.49903,14.15977 12.0952,14.33417 0.49617,0.024 3.38903,-1.2872 6.42857,-2.91391 z m -34.67543,-53.54702 c 9.5396,-9.077582 17.34475,-18.117934 17.34475,-20.089675 0,-5.761224 -8.53152,-7.4023 -12.28012,-2.362139 -3.83917,5.161915 -18.88903,6.883794 -32.22028,3.686374 -7.63929,-1.832245 -10.43623,-0.63747 -21.42857,9.153704 -6.95335,6.193556 -11.9996,11.805846 -11.21389,12.471766 2.9822,2.52752 33.07089,13.2823 37.65526,13.45935 2.63897,0.10191 12.60325,-7.2418 22.14285,-16.31938 z m 0.3826,-25.141646 c 3.09752,-3.732271 3.03512,-4.947965 -0.36442,-7.099106 -9.23952,-5.846526 -28.96275,0.880601 -24.36989,8.311996 2.99943,4.853152 20.40846,3.99947 24.73431,-1.21289 z"
       inkscape:connector-curvature="0"
       id="path916"
       transform="matrix(0.26458333,0,0,0.26458333,24.19591,-30.091508)" />
  </g>
</svg>
